<svg xmlns="http://www.w3.org/2000/svg" xmlns:xlink="http://www.w3.org/1999/xlink" width="300" zoomAndPan="magnify" viewBox="0 0 224.87999 112.499997" height="150" preserveAspectRatio="xMidYMid meet" version="1.0"><defs><g/><clipPath id="id1"><path d="M 42 19 L 183 19 L 183 94 L 42 94 Z M 42 19 " clip-rule="nonzero"/></clipPath><clipPath id="id2"><path d="M 36.769531 33.082031 L 175.960938 9.777344 L 187.707031 79.9375 L 48.515625 103.242188 Z M 36.769531 33.082031 " clip-rule="nonzero"/></clipPath><clipPath id="id3"><path d="M 36.769531 33.082031 L 175.960938 9.777344 L 187.707031 79.9375 L 48.515625 103.242188 Z M 36.769531 33.082031 " clip-rule="nonzero"/></clipPath><clipPath id="id4"><path d="M 78 25 L 141 25 L 141 90 L 78 90 Z M 78 25 " clip-rule="nonzero"/></clipPath><clipPath id="id5"><path d="M 70.039062 33.226562 L 141.929688 18.265625 L 154.789062 80.050781 L 82.894531 95.007812 Z M 70.039062 33.226562 " clip-rule="nonzero"/></clipPath><clipPath id="id6"><path d="M 70.039062 33.226562 L 141.929688 18.265625 L 154.789062 80.050781 L 82.894531 95.007812 Z M 70.039062 33.226562 " clip-rule="nonzero"/></clipPath><clipPath id="id7"><path d="M 70.039062 33.226562 L 141.929688 18.265625 L 154.789062 80.050781 L 82.894531 95.007812 Z M 70.039062 33.226562 " clip-rule="nonzero"/></clipPath><clipPath id="id8"><path d="M 130 81 L 131 81 L 131 82 L 130 82 Z M 130 81 " clip-rule="nonzero"/></clipPath><clipPath id="id9"><path d="M 70.039062 33.226562 L 141.929688 18.265625 L 154.789062 80.050781 L 82.894531 95.007812 Z M 70.039062 33.226562 " clip-rule="nonzero"/></clipPath><clipPath id="id10"><path d="M 70.039062 33.226562 L 141.929688 18.265625 L 154.789062 80.050781 L 82.894531 95.007812 Z M 70.039062 33.226562 " clip-rule="nonzero"/></clipPath><clipPath id="id11"><path d="M 70.039062 33.226562 L 141.929688 18.265625 L 154.789062 80.050781 L 82.894531 95.007812 Z M 70.039062 33.226562 " clip-rule="nonzero"/></clipPath><clipPath id="id12"><path d="M 125 52 L 155 52 L 155 82 L 125 82 Z M 125 52 " clip-rule="nonzero"/></clipPath><clipPath id="id13"><path d="M 70.039062 33.226562 L 141.929688 18.265625 L 154.789062 80.050781 L 82.894531 95.007812 Z M 70.039062 33.226562 " clip-rule="nonzero"/></clipPath><clipPath id="id14"><path d="M 70.039062 33.226562 L 141.929688 18.265625 L 154.789062 80.050781 L 82.894531 95.007812 Z M 70.039062 33.226562 " clip-rule="nonzero"/></clipPath><clipPath id="id15"><path d="M 70.039062 33.226562 L 141.929688 18.265625 L 154.789062 80.050781 L 82.894531 95.007812 Z M 70.039062 33.226562 " clip-rule="nonzero"/></clipPath></defs><g clip-path="url(#id1)"><g clip-path="url(#id2)"><g clip-path="url(#id3)"><path fill="#77b5d9" d="M 181.832031 44.855469 C 182.023438 46.003906 182.105469 47.164062 182.070312 48.34375 C 182.039062 49.519531 181.894531 50.707031 181.640625 51.90625 C 181.382812 53.105469 181.015625 54.308594 180.535156 55.515625 C 180.058594 56.722656 179.472656 57.929688 178.777344 59.132812 C 178.082031 60.339844 177.28125 61.535156 176.378906 62.726562 C 175.472656 63.917969 174.464844 65.097656 173.359375 66.261719 C 172.253906 67.425781 171.050781 68.574219 169.753906 69.699219 C 168.453125 70.828125 167.066406 71.933594 165.59375 73.011719 C 164.117188 74.09375 162.558594 75.144531 160.917969 76.167969 C 159.277344 77.1875 157.5625 78.175781 155.773438 79.128906 C 153.984375 80.085938 152.132812 81 150.210938 81.875 C 148.292969 82.753906 146.316406 83.585938 144.285156 84.378906 C 142.25 85.167969 140.171875 85.914062 138.046875 86.613281 C 135.921875 87.308594 133.757812 87.957031 131.5625 88.554688 C 129.363281 89.152344 127.140625 89.699219 124.890625 90.191406 C 122.640625 90.683594 120.375 91.121094 118.097656 91.5 C 115.816406 91.882812 113.535156 92.207031 111.246094 92.476562 C 108.960938 92.742188 106.679688 92.953125 104.40625 93.101562 C 102.132812 93.253906 99.878906 93.34375 97.640625 93.378906 C 95.40625 93.410156 93.195312 93.382812 91.015625 93.296875 C 88.839844 93.210938 86.699219 93.066406 84.597656 92.863281 C 82.496094 92.660156 80.445312 92.398438 78.445312 92.078125 C 76.441406 91.757812 74.5 91.382812 72.617188 90.953125 C 70.730469 90.519531 68.917969 90.035156 67.167969 89.492188 C 65.421875 88.953125 63.75 88.359375 62.15625 87.714844 C 60.5625 87.074219 59.050781 86.378906 57.625 85.640625 C 56.199219 84.898438 54.867188 84.113281 53.621094 83.28125 C 52.378906 82.453125 51.230469 81.578125 50.183594 80.667969 C 49.132812 79.753906 48.183594 78.804688 47.339844 77.820312 C 46.492188 76.832031 45.753906 75.816406 45.121094 74.765625 C 44.488281 73.714844 43.964844 72.640625 43.550781 71.535156 C 43.136719 70.433594 42.832031 69.308594 42.640625 68.164062 C 42.449219 67.015625 42.371094 65.855469 42.402344 64.675781 C 42.433594 63.5 42.578125 62.3125 42.835938 61.113281 C 43.09375 59.914062 43.460938 58.710938 43.9375 57.503906 C 44.414062 56.296875 45.003906 55.089844 45.699219 53.886719 C 46.390625 52.679688 47.191406 51.484375 48.097656 50.292969 C 49.003906 49.101562 50.007812 47.921875 51.117188 46.757812 C 52.222656 45.59375 53.425781 44.449219 54.722656 43.320312 C 56.019531 42.191406 57.40625 41.085938 58.882812 40.007812 C 60.359375 38.925781 61.917969 37.875 63.558594 36.855469 C 65.199219 35.832031 66.910156 34.84375 68.699219 33.890625 C 70.488281 32.933594 72.34375 32.019531 74.261719 31.144531 C 76.183594 30.265625 78.160156 29.433594 80.191406 28.640625 C 82.222656 27.851562 84.300781 27.105469 86.429688 26.40625 C 88.554688 25.710938 90.714844 25.0625 92.914062 24.464844 C 95.113281 23.867188 97.335938 23.320312 99.585938 22.828125 C 101.835938 22.335938 104.097656 21.898438 106.378906 21.519531 C 108.65625 21.136719 110.941406 20.8125 113.226562 20.542969 C 115.515625 20.277344 117.796875 20.066406 120.066406 19.917969 C 122.339844 19.765625 124.597656 19.675781 126.832031 19.640625 C 129.070312 19.609375 131.277344 19.636719 133.457031 19.722656 C 135.636719 19.808594 137.777344 19.953125 139.878906 20.15625 C 141.976562 20.359375 144.027344 20.621094 146.03125 20.941406 C 148.03125 21.261719 149.976562 21.636719 151.859375 22.066406 C 153.742188 22.5 155.558594 22.984375 157.304688 23.527344 C 159.054688 24.066406 160.722656 24.660156 162.320312 25.304688 C 163.914062 25.945312 165.421875 26.640625 166.847656 27.378906 C 168.273438 28.121094 169.609375 28.90625 170.851562 29.738281 C 172.097656 30.570312 173.242188 31.441406 174.292969 32.351562 C 175.34375 33.265625 176.289062 34.214844 177.136719 35.199219 C 177.980469 36.1875 178.71875 37.203125 179.351562 38.253906 C 179.984375 39.304688 180.507812 40.378906 180.921875 41.484375 C 181.339844 42.585938 181.640625 43.710938 181.832031 44.855469 Z M 181.832031 44.855469 " fill-opacity="1" fill-rule="nonzero"/></g></g></g><g clip-path="url(#id4)"><g clip-path="url(#id5)"><g clip-path="url(#id6)"><g clip-path="url(#id7)"><path fill="#000000" d="M 108.1875 25.46875 C 106.570312 26.121094 105.34375 27.03125 103.59375 28.90625 C 101.511719 31.113281 101.242188 31.433594 100.492188 32.625 C 99.640625 33.976562 99.40625 34.511719 99.054688 36 C 98.664062 37.601562 98.617188 38.496094 98.867188 39.988281 C 99.207031 42.082031 99.988281 43.769531 101.300781 45.1875 L 101.96875 45.921875 L 101.632812 46.628906 C 101.449219 47.003906 101.140625 47.691406 100.953125 48.144531 C 100.652344 48.878906 100.59375 48.945312 100.46875 48.792969 C 100.296875 48.585938 99.882812 48.511719 99.214844 48.566406 C 98.933594 48.59375 98.59375 48.570312 98.46875 48.511719 C 98.332031 48.464844 97.96875 48.394531 97.65625 48.351562 C 97.3125 48.320312 96.941406 48.183594 96.753906 48.042969 C 95.84375 47.355469 94.539062 47.691406 93.691406 48.820312 C 93.355469 49.28125 92.976562 50.171875 93.023438 50.40625 C 93.101562 50.769531 92.78125 51.5625 92.4375 51.878906 C 92.234375 52.058594 92.035156 52.363281 91.984375 52.574219 C 91.894531 52.941406 91.617188 53.222656 90.679688 53.863281 C 90.347656 54.089844 90.199219 54.289062 90.039062 54.722656 C 89.914062 55.078125 89.652344 55.492188 89.308594 55.847656 C 89.003906 56.164062 88.601562 56.648438 88.402344 56.945312 C 88.199219 57.230469 87.800781 57.746094 87.527344 58.085938 C 86.585938 59.214844 84.664062 61.980469 84.171875 62.90625 C 83.367188 64.425781 83.089844 64.96875 82.6875 65.84375 C 82.464844 66.304688 81.988281 67.183594 81.613281 67.8125 C 80.960938 68.910156 80.261719 70.386719 79.910156 71.429688 C 79.023438 74.066406 78.902344 74.492188 78.898438 74.988281 L 78.894531 75.527344 L 79.464844 76.035156 C 80.144531 76.632812 82.585938 78.226562 83.472656 78.652344 C 83.824219 78.824219 84.339844 79.042969 84.621094 79.132812 C 85.929688 79.558594 89.140625 80.007812 92.082031 80.179688 L 93.941406 80.277344 L 96.304688 79.796875 C 97.605469 79.527344 98.726562 79.324219 98.796875 79.351562 C 98.875 79.378906 99.441406 79.375 100.054688 79.34375 C 102.148438 79.214844 102.714844 79.359375 103.65625 80.253906 C 103.957031 80.550781 104.605469 81.132812 105.082031 81.5625 C 106.140625 82.515625 106.15625 82.53125 106.988281 83.910156 C 107.359375 84.53125 107.878906 85.375 108.152344 85.78125 C 108.417969 86.191406 108.761719 86.742188 108.921875 86.996094 C 109.398438 87.773438 109.808594 88.238281 110.398438 88.652344 C 110.707031 88.875 111.054688 89.035156 111.167969 89.011719 C 111.316406 88.980469 111.210938 88.863281 110.640625 88.453125 C 109.878906 87.925781 109.753906 87.773438 108.84375 86.324219 C 108.542969 85.835938 108.179688 85.289062 108.058594 85.113281 C 107.925781 84.941406 107.5625 84.351562 107.25 83.804688 C 106.511719 82.53125 106.285156 82.25 105.242188 81.316406 C 104.761719 80.886719 104.128906 80.300781 103.816406 80.019531 C 102.859375 79.097656 102.136719 78.910156 100.140625 79.050781 C 99.65625 79.089844 98.984375 79.101562 98.648438 79.097656 C 98.207031 79.085938 97.578125 79.195312 96.316406 79.496094 C 94.941406 79.835938 94.421875 79.925781 93.707031 79.925781 C 90.773438 79.945312 85.835938 79.3125 84.296875 78.726562 C 83.382812 78.367188 80.914062 76.863281 79.9375 76.050781 C 78.890625 75.191406 78.894531 75.210938 79.585938 73.09375 C 80.359375 70.710938 81.011719 69.203125 81.855469 67.804688 C 82.210938 67.199219 82.679688 66.375 82.875 65.953125 C 83.65625 64.3125 84.453125 62.792969 84.988281 61.976562 C 85.742188 60.804688 87.152344 58.851562 87.714844 58.175781 C 87.96875 57.878906 88.367188 57.375 88.582031 57.054688 C 88.8125 56.742188 89.230469 56.234375 89.523438 55.929688 C 89.824219 55.613281 90.109375 55.207031 90.160156 55.003906 C 90.3125 54.421875 90.546875 54.132812 91.050781 53.835938 C 91.695312 53.460938 92.078125 53.0625 92.171875 52.664062 C 92.246094 52.371094 92.777344 51.734375 92.808594 51.898438 C 92.84375 52.058594 92.632812 52.597656 92.394531 52.933594 C 92.257812 53.132812 92.0625 53.648438 91.960938 54.082031 C 91.839844 54.59375 91.527344 55.3125 91.054688 56.171875 C 90.339844 57.480469 90.023438 57.917969 89.71875 57.980469 C 89.628906 58 89.597656 58.058594 89.640625 58.101562 C 89.734375 58.210938 89.328125 59.023438 88.863281 59.667969 C 88.710938 59.890625 88.425781 60.332031 88.230469 60.667969 C 88.039062 60.992188 87.660156 61.597656 87.398438 62.003906 C 87.125 62.40625 86.765625 63.09375 86.605469 63.539062 C 86.292969 64.355469 85.835938 65.296875 85.238281 66.308594 C 85.050781 66.621094 84.917969 66.933594 84.933594 67.015625 C 84.976562 67.226562 86.601562 64.578125 86.871094 63.855469 C 86.996094 63.511719 87.238281 63.007812 87.402344 62.738281 C 87.570312 62.472656 87.835938 61.984375 87.988281 61.65625 C 88.136719 61.320312 88.679688 60.445312 89.195312 59.695312 C 90.105469 58.363281 90.136719 58.324219 90.394531 58.441406 C 90.53125 58.496094 90.738281 58.695312 90.859375 58.863281 C 91.160156 59.296875 92.578125 60.617188 93.242188 61.082031 C 93.546875 61.292969 93.964844 61.636719 94.167969 61.859375 C 94.371094 62.070312 94.691406 62.289062 94.878906 62.347656 C 95.402344 62.492188 95.417969 62.867188 94.921875 63.605469 C 94.699219 63.949219 94.464844 64.398438 94.40625 64.609375 C 94.34375 64.824219 94.144531 65.222656 93.960938 65.496094 C 93.683594 65.921875 93.5625 66.011719 93.078125 66.152344 C 92.613281 66.292969 92.523438 66.355469 92.546875 66.527344 C 92.617188 67.0625 92.519531 67.191406 91.105469 68.328125 C 89.617188 69.535156 88.753906 70.140625 88.097656 70.464844 C 87.613281 70.703125 87.566406 70.945312 88.050781 70.738281 C 88.703125 70.457031 90.085938 69.578125 91.074219 68.820312 C 91.636719 68.398438 92.121094 68.054688 92.15625 68.070312 C 92.179688 68.09375 92.039062 68.324219 91.820312 68.582031 C 91.421875 69.085938 90.519531 71.101562 90.25 72.128906 C 90.160156 72.457031 90.007812 72.929688 89.910156 73.171875 C 89.691406 73.734375 89.84375 73.851562 90.109375 73.320312 C 90.21875 73.097656 90.492188 72.585938 90.714844 72.203125 C 90.9375 71.808594 91.289062 71.015625 91.496094 70.457031 C 91.703125 69.882812 91.972656 69.164062 92.097656 68.863281 C 92.359375 68.238281 93.109375 67.152344 93.203125 67.257812 C 93.234375 67.304688 93.390625 67.558594 93.554688 67.832031 C 93.707031 68.113281 93.988281 68.457031 94.175781 68.597656 C 94.363281 68.75 94.777344 69.117188 95.09375 69.433594 C 95.410156 69.746094 95.863281 70.148438 96.089844 70.324219 C 96.730469 70.835938 98.933594 73.660156 99.683594 74.941406 C 99.832031 75.195312 99.988281 75.386719 100.035156 75.375 C 100.449219 75.289062 97.457031 70.800781 95.871094 69.132812 C 95.359375 68.59375 94.960938 68.128906 94.976562 68.105469 C 95.152344 67.835938 98.832031 70.25 100.371094 71.640625 C 100.671875 71.917969 100.949219 72.101562 100.996094 72.058594 C 101.046875 72.007812 100.773438 71.695312 100.398438 71.359375 C 100.023438 71.015625 99.484375 70.503906 99.203125 70.214844 C 98.480469 69.464844 98.105469 69.226562 96.523438 68.480469 C 95.757812 68.121094 94.703125 67.558594 94.183594 67.222656 L 93.238281 66.617188 L 93.503906 66.371094 C 94.054688 65.855469 94.820312 65.589844 95.332031 65.738281 C 95.511719 65.785156 95.746094 65.808594 95.859375 65.789062 C 96.324219 65.699219 97.03125 66.027344 98.628906 67.046875 C 99.585938 67.664062 100.347656 68.097656 100.386719 68.035156 C 100.5 67.863281 99.886719 66.988281 99.289062 66.480469 C 98.980469 66.214844 98.230469 65.738281 97.609375 65.421875 C 96.355469 64.796875 96.304688 64.703125 96.925781 64.203125 C 97.105469 64.058594 98.355469 63.304688 99.695312 62.527344 C 102.671875 60.800781 105.152344 59.648438 105.996094 59.621094 C 106.539062 59.605469 106.539062 59.605469 106.652344 60.003906 C 106.707031 60.222656 106.84375 60.574219 106.941406 60.789062 C 107.046875 60.996094 107.28125 61.710938 107.46875 62.367188 C 107.660156 63.023438 107.929688 63.761719 108.074219 64.007812 C 108.214844 64.238281 108.476562 64.925781 108.652344 65.523438 C 108.824219 66.109375 109.328125 67.421875 109.773438 68.4375 C 110.210938 69.445312 110.6875 70.519531 110.8125 70.808594 C 111.496094 72.386719 111.6875 72.804688 112.300781 73.878906 C 112.675781 74.53125 113.058594 75.148438 113.167969 75.261719 C 113.273438 75.367188 113.582031 75.949219 113.839844 76.539062 C 114.109375 77.125 114.402344 77.679688 114.5 77.742188 C 114.601562 77.816406 114.742188 78.050781 114.832031 78.265625 C 114.917969 78.480469 115.25 78.929688 115.566406 79.273438 C 115.886719 79.609375 116.214844 80.070312 116.300781 80.285156 C 116.507812 80.777344 116.738281 81.078125 117.144531 81.324219 C 117.410156 81.488281 117.460938 81.574219 117.46875 81.867188 C 117.476562 82.152344 117.558594 82.292969 117.878906 82.617188 C 118.101562 82.84375 118.296875 83.070312 118.308594 83.121094 C 118.316406 83.171875 118.386719 83.144531 118.453125 83.058594 C 118.550781 82.929688 118.582031 82.933594 118.617188 83.097656 C 118.667969 83.339844 119.042969 86.558594 119.074219 87.015625 C 119.101562 87.433594 119.257812 87.441406 119.257812 87.03125 C 119.257812 86.871094 119.148438 85.859375 119.011719 84.789062 C 118.878906 83.707031 118.707031 82.0625 118.625 81.121094 C 118.542969 80.175781 118.441406 79.128906 118.402344 78.789062 C 118.363281 78.449219 118.335938 77.863281 118.339844 77.480469 C 118.34375 77.101562 118.175781 75.730469 117.960938 74.445312 C 117.730469 72.980469 117.609375 71.898438 117.636719 71.574219 C 117.664062 71.296875 117.839844 70.382812 118.03125 69.539062 C 118.234375 68.703125 118.457031 67.453125 118.527344 66.773438 C 118.710938 65.078125 118.816406 64.726562 119.21875 64.445312 C 119.742188 64.089844 120.140625 64.136719 120.871094 64.671875 C 121.597656 65.195312 122.921875 66.851562 123.269531 67.667969 C 123.59375 68.425781 123.78125 69.484375 123.910156 71.199219 C 124.003906 72.457031 124.128906 73.257812 124.613281 75.53125 C 124.941406 77.070312 125.261719 78.808594 125.324219 79.410156 C 125.460938 80.773438 126.394531 85.925781 126.476562 85.804688 C 126.507812 85.753906 126.304688 84.277344 126.011719 82.519531 C 125.722656 80.761719 125.453125 79.023438 125.417969 78.660156 L 125.355469 77.996094 L 125.78125 78.53125 C 126.59375 79.558594 130.9375 84.738281 131.054688 84.808594 C 131.214844 84.921875 131.292969 84.746094 131.132812 84.625 C 131.066406 84.5625 130.835938 84.050781 130.621094 83.484375 C 130.011719 81.855469 130.042969 82.007812 130.316406 82.121094 C 130.816406 82.34375 131.324219 82.058594 131.402344 81.523438 C 131.503906 80.710938 130.550781 80.308594 130.03125 80.945312 C 129.773438 81.261719 129.878906 82.03125 130.304688 83.125 C 130.484375 83.585938 130.628906 83.96875 130.621094 83.980469 C 130.613281 83.992188 129.917969 83.183594 129.082031 82.1875 C 128.246094 81.1875 127.035156 79.761719 126.398438 79.027344 L 125.246094 77.683594 L 124.667969 74.6875 C 124.265625 72.605469 124.085938 71.386719 124.054688 70.695312 C 124.003906 69.4375 123.753906 68.230469 123.402344 67.503906 C 123.039062 66.773438 121.867188 65.222656 121.265625 64.703125 L 120.804688 64.304688 L 121.261719 63.523438 C 121.75 62.691406 121.894531 62.28125 121.957031 61.613281 L 121.988281 61.207031 L 122.785156 61.957031 C 123.226562 62.375 123.722656 62.882812 123.894531 63.101562 C 124.234375 63.535156 124.523438 63.550781 124.699219 63.132812 C 124.882812 62.707031 125.003906 60.980469 125.054688 58.042969 C 125.097656 55.214844 125.226562 54.078125 125.527344 54.015625 C 126.285156 53.855469 129.527344 58.296875 132.265625 63.230469 C 132.871094 64.328125 133.644531 65.675781 134.003906 66.238281 C 135.832031 69.171875 137.839844 73.730469 138.894531 77.378906 C 139.191406 78.414062 139.621094 79.867188 139.835938 80.59375 C 140.050781 81.320312 140.210938 81.941406 140.195312 81.976562 C 140.171875 82.003906 140.027344 82.011719 139.863281 81.984375 C 139.699219 81.964844 138.871094 81.964844 138.03125 82.003906 C 135.78125 82.09375 134.847656 81.894531 133.820312 81.136719 C 133.261719 80.726562 132.847656 80.210938 132.082031 78.953125 C 131.300781 77.667969 130.671875 76.808594 129.816406 75.886719 C 127.570312 73.449219 126.941406 71.792969 127.9375 70.890625 C 128.222656 70.640625 128.476562 70.554688 131.054688 69.96875 C 133.617188 69.371094 134.917969 68.972656 135.042969 68.765625 C 135.066406 68.71875 134.875 68.757812 134.601562 68.859375 C 134.339844 68.957031 132.8125 69.335938 131.210938 69.710938 C 128.476562 70.355469 128.28125 70.417969 127.933594 70.710938 C 126.792969 71.644531 127.265625 73.3125 129.292969 75.539062 C 130.414062 76.777344 131.128906 77.703125 131.816406 78.839844 C 132.695312 80.285156 133.125 80.828125 133.765625 81.285156 C 134.847656 82.054688 135.652344 82.226562 137.828125 82.152344 C 138.664062 82.125 139.578125 82.125 139.855469 82.152344 C 140.308594 82.207031 140.378906 82.246094 140.503906 82.546875 C 140.574219 82.730469 140.675781 82.871094 140.726562 82.859375 C 140.828125 82.839844 140.671875 82.246094 140.527344 82.097656 C 140.484375 82.042969 140.015625 80.546875 139.5 78.773438 C 138.503906 75.355469 138.34375 74.882812 137.058594 71.898438 C 135.902344 69.199219 135.671875 68.761719 134.054688 65.972656 C 133.253906 64.597656 132.226562 62.792969 131.757812 61.960938 C 129.738281 58.355469 126.589844 54.109375 125.757812 53.859375 C 125.402344 53.753906 125.125 54.085938 125.027344 54.773438 C 124.976562 55.089844 124.925781 56.113281 124.910156 57.046875 C 124.835938 61.320312 124.726562 62.925781 124.484375 63.222656 C 124.402344 63.324219 124.324219 63.359375 124.292969 63.304688 C 124.179688 63.117188 123.605469 62.527344 122.21875 61.167969 C 120.46875 59.460938 119.804688 58.585938 119.539062 57.660156 C 119.375 57.078125 119.367188 56.945312 119.5 56.714844 C 119.640625 56.484375 119.75 55.542969 119.652344 55.480469 C 119.5625 55.414062 119.238281 56.273438 119.222656 56.605469 C 119.199219 57.03125 118.757812 57.484375 118.121094 57.710938 C 116.433594 58.335938 112.777344 56.550781 110.472656 54 C 110.242188 53.742188 110.035156 53.46875 110.019531 53.386719 C 110.003906 53.304688 109.917969 53.25 109.835938 53.265625 C 109.746094 53.285156 109.730469 53.351562 109.777344 53.4375 C 109.914062 53.640625 109.714844 53.640625 109.457031 53.449219 C 109.15625 53.226562 107.523438 51.484375 107.566406 51.433594 C 107.582031 51.410156 107.75 51.449219 107.933594 51.539062 C 108.421875 51.753906 109.191406 51.773438 109.507812 51.582031 C 110.117188 51.222656 109.976562 50.34375 109.234375 49.863281 C 108.917969 49.652344 108.664062 49.589844 108.210938 49.589844 C 107.445312 49.589844 107.125 49.46875 106.855469 49.078125 C 106.503906 48.550781 106.636719 48.226562 107.292969 48.089844 C 107.816406 47.980469 107.925781 47.855469 107.929688 47.417969 L 107.925781 47.0625 L 108.527344 47.726562 C 109.265625 48.554688 109.777344 48.882812 110.429688 48.949219 C 111.136719 49.023438 112.132812 48.910156 112.105469 48.769531 C 112.089844 48.707031 111.820312 48.46875 111.507812 48.226562 C 110.914062 47.792969 110.554688 47.371094 110.476562 47.003906 C 110.375 46.519531 111.109375 46.925781 111.414062 47.527344 C 111.488281 47.671875 111.613281 47.773438 111.691406 47.757812 C 111.964844 47.699219 112.003906 47.089844 111.792969 46.023438 C 111.585938 44.914062 111.59375 44.808594 112.066406 44.359375 C 112.4375 44.011719 114.289062 43.085938 115.566406 42.617188 C 117.042969 42.078125 117.417969 41.777344 118.371094 40.40625 L 118.679688 39.964844 L 118.894531 40.140625 C 119.328125 40.515625 119.800781 40.554688 120.671875 40.300781 C 121.847656 39.949219 123.875 39.15625 124 39.003906 C 124.15625 38.792969 124.394531 40.042969 124.324219 40.648438 C 124.171875 41.746094 123.304688 42.371094 122.160156 42.207031 C 121.875 42.160156 121.753906 42.1875 121.742188 42.273438 C 121.707031 42.511719 122.316406 43.769531 122.929688 44.710938 C 123.273438 45.242188 123.609375 45.847656 123.679688 46.042969 C 123.839844 46.507812 123.71875 47.132812 123.375 47.492188 L 123.132812 47.75 L 122.828125 47.550781 C 122.429688 47.285156 121.953125 47.375 121.8125 47.753906 C 121.605469 48.269531 122.050781 48.496094 122.738281 48.214844 C 122.917969 48.132812 123.101562 48.105469 123.144531 48.152344 C 123.183594 48.195312 123.324219 48.558594 123.433594 48.945312 L 123.65625 49.652344 L 123.332031 49.65625 C 122.847656 49.660156 122.40625 49.964844 121.601562 50.878906 C 121.203125 51.332031 120.820312 51.71875 120.761719 51.730469 C 120.703125 51.753906 120.78125 51.832031 120.933594 51.90625 C 121.585938 52.269531 123.425781 52.128906 124.1875 51.664062 C 124.648438 51.386719 125.144531 50.703125 125.21875 50.246094 C 125.261719 50.054688 125.335938 49.808594 125.386719 49.703125 C 125.476562 49.523438 125.449219 49.488281 125.082031 49.351562 C 124.6875 49.214844 124.371094 49.257812 124.003906 49.515625 C 123.886719 49.601562 123.808594 49.480469 123.558594 48.785156 L 123.257812 47.949219 L 123.585938 47.5 C 124.1875 46.667969 124.097656 46.125 123.109375 44.609375 C 122.507812 43.6875 122.128906 42.964844 122.050781 42.601562 C 122.015625 42.429688 122.050781 42.398438 122.351562 42.433594 C 123.097656 42.488281 123.835938 42.144531 124.199219 41.574219 L 124.457031 41.191406 L 124.8125 42.34375 C 125.007812 42.976562 125.417969 44.097656 125.730469 44.84375 C 126.84375 47.570312 126.828125 48.757812 125.605469 51.410156 C 125.253906 52.179688 124.820312 53.136719 124.652344 53.53125 C 124.179688 54.644531 123.367188 55.332031 122.230469 55.566406 C 121.617188 55.695312 121.5 55.6875 119.828125 55.210938 C 118.421875 54.816406 117.808594 54.703125 116.660156 54.632812 C 115.886719 54.59375 114.894531 54.464844 114.464844 54.363281 C 113.566406 54.136719 112.136719 53.324219 111.605469 52.730469 C 111.234375 52.320312 111.101562 52.230469 111.277344 52.511719 C 111.6875 53.175781 113.136719 54.132812 114.199219 54.449219 C 114.554688 54.542969 115.261719 54.671875 115.785156 54.710938 C 116.296875 54.753906 117.113281 54.824219 117.605469 54.871094 C 118.082031 54.910156 118.988281 55.113281 119.605469 55.308594 C 121.464844 55.917969 122.210938 55.929688 123.203125 55.394531 C 123.882812 55.03125 124.46875 54.414062 124.726562 53.789062 C 124.84375 53.492188 125.25 52.613281 125.609375 51.832031 C 126.460938 50.015625 126.59375 49.597656 126.671875 48.453125 C 126.765625 47.25 126.605469 46.480469 125.96875 44.984375 C 125.699219 44.34375 125.324219 43.386719 125.136719 42.855469 C 124.75 41.699219 124.394531 39.640625 124.535156 39.359375 C 124.601562 39.261719 124.917969 38.875 125.265625 38.519531 C 126.460938 37.300781 127.128906 35.976562 127.296875 34.558594 C 127.386719 33.789062 127.292969 32.679688 126.953125 30.585938 C 126.597656 28.375 126.175781 27.609375 124.984375 27.074219 C 124.136719 26.691406 123.292969 26.675781 121.460938 26.996094 C 119.234375 27.394531 118.167969 27.765625 115.992188 28.914062 C 115.820312 29.003906 115.695312 28.910156 115.160156 28.304688 C 113.804688 26.78125 112.101562 25.5 111.019531 25.207031 C 110.507812 25.070312 109.449219 25.023438 109.082031 25.121094 C 108.992188 25.140625 108.59375 25.296875 108.1875 25.46875 Z M 110.835938 25.277344 C 111.535156 25.449219 113.234375 26.5625 114.15625 27.457031 C 115.128906 28.398438 115.128906 28.398438 114.554688 28.515625 C 113.589844 28.71875 111.054688 30.417969 109.535156 31.882812 C 108.058594 33.3125 106.378906 35.140625 105.902344 35.871094 C 105.097656 37.085938 104.335938 39.242188 104.050781 41.140625 C 103.972656 41.628906 103.683594 42.355469 103.015625 43.730469 C 102.507812 44.777344 102.058594 45.652344 102.023438 45.679688 C 101.984375 45.699219 101.671875 45.40625 101.308594 45.015625 C 99.738281 43.3125 98.722656 40.453125 98.855469 38.066406 C 98.914062 37 99.347656 35.144531 99.785156 34.15625 C 100.222656 33.144531 101.21875 31.671875 102.085938 30.742188 C 102.46875 30.324219 103.234375 29.5 103.769531 28.902344 C 105.148438 27.398438 106.132812 26.632812 107.605469 25.886719 C 108.722656 25.3125 110.007812 25.078125 110.835938 25.277344 Z M 123.390625 26.941406 C 124.804688 26.984375 125.6875 27.433594 126.191406 28.398438 C 126.433594 28.855469 126.53125 29.222656 126.808594 30.855469 C 127.222656 33.253906 127.261719 34.238281 126.980469 35.320312 C 126.75 36.214844 125.976562 37.546875 125.234375 38.324219 L 124.820312 38.75 L 124.929688 38.21875 C 125.074219 37.546875 124.925781 36.382812 124.605469 35.710938 C 123.878906 34.171875 122.773438 32.996094 120.851562 31.738281 C 119.742188 31.007812 119.273438 30.765625 118.664062 30.609375 C 117.898438 30.410156 117.886719 30.410156 116.53125 30.703125 C 114.933594 31.046875 113.085938 31.789062 111.757812 32.636719 C 111.304688 32.921875 110.96875 33.117188 111.007812 33.066406 C 112.089844 31.648438 115.128906 29.453125 117.59375 28.285156 C 119.160156 27.546875 121.964844 26.898438 123.390625 26.941406 Z M 115.117188 28.589844 C 115.242188 28.636719 115.621094 29.148438 115.566406 29.191406 C 115.546875 29.207031 115.125 29.484375 114.617188 29.824219 C 113.542969 30.511719 112.324219 31.460938 111.652344 32.121094 C 109.308594 34.425781 106.183594 38.128906 105.03125 39.953125 C 104.0625 41.503906 104.023438 41.472656 104.550781 39.46875 C 105.03125 37.636719 105.625 36.351562 106.496094 35.285156 C 107.257812 34.355469 109.835938 31.726562 110.671875 31.046875 C 112.503906 29.554688 114.601562 28.390625 115.117188 28.589844 Z M 118.152344 30.714844 C 118.9375 30.816406 119.585938 31.101562 120.707031 31.851562 C 123.042969 33.394531 124.507812 35.242188 124.742188 36.96875 C 124.828125 37.628906 124.695312 38.554688 124.425781 39.085938 C 124.328125 39.304688 124.308594 39.277344 124.179688 38.703125 C 124.035156 38.015625 123.464844 36.769531 123.03125 36.207031 C 122.714844 35.796875 121.355469 34.8125 121.164062 34.851562 C 121.09375 34.867188 121.277344 35.050781 121.59375 35.257812 C 122.734375 36.035156 124.246094 38.457031 123.878906 38.925781 C 123.726562 39.105469 121.964844 39.808594 120.699219 40.179688 C 119.769531 40.457031 119.503906 40.4375 119.050781 40.078125 C 118.785156 39.867188 118.785156 39.867188 118.863281 39.335938 C 118.976562 38.625 118.707031 37.371094 118.453125 37.421875 C 118.324219 37.449219 118.371094 39.140625 118.511719 39.503906 C 118.625 39.804688 118.601562 39.894531 118.332031 40.269531 C 117.78125 41.046875 117.050781 41.824219 116.703125 42.011719 C 116.511719 42.117188 115.914062 42.355469 115.386719 42.550781 C 114.238281 42.980469 112.644531 43.746094 112.148438 44.089844 C 111.957031 44.226562 111.71875 44.496094 111.609375 44.6875 C 111.445312 44.996094 111.449219 45.125 111.621094 45.953125 C 111.730469 46.46875 111.800781 47.066406 111.785156 47.292969 L 111.765625 47.699219 L 111.394531 47.238281 C 111.195312 46.984375 110.902344 46.726562 110.753906 46.664062 C 110.476562 46.550781 110.457031 46.554688 110.363281 46.765625 C 110.191406 47.140625 110.492188 47.582031 111.398438 48.3125 L 111.902344 48.714844 L 111.511719 48.796875 C 110.957031 48.914062 110.183594 48.832031 109.71875 48.601562 C 109.496094 48.5 108.914062 47.964844 108.410156 47.414062 C 107.363281 46.269531 106.300781 45.339844 106.085938 45.382812 C 105.855469 45.433594 105.960938 45.589844 106.320312 45.746094 C 106.851562 45.984375 107.59375 46.71875 107.746094 47.152344 C 107.929688 47.671875 107.8125 47.875 107.238281 47.996094 C 106.457031 48.160156 106.296875 48.710938 106.863281 49.320312 C 107.160156 49.640625 107.585938 49.761719 108.3125 49.726562 C 109.355469 49.691406 110.179688 50.871094 109.507812 51.433594 C 109.25 51.644531 108.445312 51.621094 107.820312 51.382812 C 106.949219 51.046875 105.753906 49.277344 105.292969 47.660156 C 104.691406 45.527344 105.050781 41.964844 106.097656 39.625 C 106.964844 37.691406 108.71875 35.371094 110.464844 33.824219 C 112.414062 32.109375 116.441406 30.480469 118.152344 30.714844 Z M 106.292969 38.695312 C 105.03125 40.859375 104.433594 44.691406 104.960938 47.222656 C 105.214844 48.449219 105.679688 49.429688 106.589844 50.613281 C 107.277344 51.503906 108.914062 53.320312 109.324219 53.625 C 109.523438 53.773438 109.484375 53.78125 107.851562 54.070312 C 106.050781 54.390625 105.316406 54.394531 104.304688 54.121094 C 103.40625 53.886719 103.410156 53.746094 104.320312 53.632812 C 105.300781 53.503906 105.808594 53.132812 106.007812 52.371094 C 106.160156 51.789062 106.085938 51.332031 105.714844 50.648438 C 105.3125 49.886719 103.175781 46.972656 102.511719 46.265625 L 102.164062 45.902344 L 103.085938 43.980469 C 104.332031 41.429688 105.09375 40.054688 105.851562 39 C 106.535156 38.054688 106.746094 37.90625 106.292969 38.695312 Z M 123.175781 36.609375 C 123.300781 36.792969 123.386719 36.964844 123.371094 36.992188 C 123.332031 37.050781 122.800781 36.421875 122.648438 36.128906 L 122.523438 35.890625 L 122.742188 36.078125 C 122.847656 36.191406 123.054688 36.421875 123.175781 36.609375 Z M 118.765625 38.910156 C 118.757812 39.441406 118.617188 39.714844 118.535156 39.328125 C 118.503906 39.113281 118.503906 38.269531 118.550781 38.035156 C 118.617188 37.707031 118.773438 38.347656 118.765625 38.910156 Z M 102.691406 46.660156 C 103.464844 47.566406 105.367188 50.246094 105.675781 50.878906 C 106.039062 51.605469 106.058594 52.160156 105.761719 52.6875 C 105.488281 53.1875 105.027344 53.464844 104.417969 53.496094 L 103.960938 53.527344 L 104.316406 53.007812 C 104.519531 52.722656 104.675781 52.417969 104.667969 52.335938 C 104.625 51.921875 104.527344 51.8125 104.144531 51.734375 C 103.632812 51.640625 103.03125 51.839844 102.070312 52.453125 C 101.445312 52.835938 100.359375 53.367188 100.34375 53.285156 C 100.339844 53.277344 100.371094 53.078125 100.417969 52.847656 C 100.457031 52.621094 100.476562 52.023438 100.449219 51.53125 C 100.382812 50.054688 100.554688 49.3125 101.347656 47.628906 C 101.734375 46.808594 102.085938 46.121094 102.121094 46.101562 C 102.164062 46.09375 102.414062 46.347656 102.691406 46.660156 Z M 96.378906 48.058594 C 97.148438 48.53125 97.347656 49.546875 96.886719 50.65625 C 96.550781 51.464844 96.414062 51.570312 95.917969 51.398438 C 95.601562 51.292969 95.488281 51.296875 95.335938 51.425781 C 95.042969 51.675781 95.03125 51.570312 95.304688 51.019531 C 95.464844 50.6875 95.542969 50.347656 95.527344 50.03125 C 95.515625 49.761719 95.550781 49.425781 95.601562 49.277344 C 95.667969 49.125 95.65625 49.03125 95.585938 49.046875 C 95.414062 49.082031 95.28125 49.554688 95.300781 50.039062 C 95.308594 50.289062 95.234375 50.675781 95.105469 50.921875 C 94.976562 51.160156 94.863281 51.46875 94.839844 51.613281 C 94.785156 51.949219 95.054688 52.296875 95.421875 52.347656 C 95.777344 52.386719 96.308594 51.960938 96.808594 51.242188 C 96.984375 50.976562 97.089844 50.878906 97.054688 51.011719 C 97.019531 51.136719 96.914062 51.347656 96.808594 51.488281 C 96.710938 51.625 96.503906 51.996094 96.347656 52.300781 C 95.652344 53.691406 96.757812 54.464844 97.769531 53.285156 L 98.167969 52.832031 L 98.167969 53.125 C 98.164062 53.464844 98.246094 53.554688 98.648438 53.722656 C 99.167969 53.945312 99.742188 53.6875 100.023438 53.121094 C 100.203125 52.765625 100.285156 52.804688 100.21875 53.207031 L 100.167969 53.511719 L 100.738281 53.320312 C 101.054688 53.222656 101.726562 52.882812 102.242188 52.574219 C 103.210938 51.992188 103.621094 51.84375 104.089844 51.925781 C 104.46875 51.984375 104.476562 52.121094 104.09375 52.347656 C 103.757812 52.542969 103.527344 52.960938 103.601562 53.265625 C 103.628906 53.394531 103.65625 53.367188 103.6875 53.171875 C 103.761719 52.765625 103.964844 52.480469 104.214844 52.429688 C 104.386719 52.394531 104.445312 52.421875 104.417969 52.542969 C 104.382812 52.828125 103.742188 53.425781 102.769531 54.101562 C 102.265625 54.449219 101.574219 54.964844 101.222656 55.25 C 100.304688 55.976562 99.621094 56.375 99.582031 56.191406 C 99.566406 56.109375 99.25 55.910156 98.890625 55.742188 C 97.882812 55.289062 97.492188 55.03125 96.527344 54.164062 C 95.574219 53.316406 95.441406 53.238281 94.523438 53.0625 C 93.765625 52.914062 93.351562 52.734375 93.144531 52.441406 C 92.980469 52.21875 92.941406 51.765625 93.058594 51.519531 C 93.09375 51.445312 93.15625 51.085938 93.191406 50.699219 C 93.328125 49.242188 94.160156 48.191406 95.375 47.929688 C 95.886719 47.824219 95.996094 47.84375 96.378906 48.058594 Z M 97.785156 48.558594 C 98.96875 48.757812 99.183594 49.378906 98.675781 51.085938 C 98.492188 51.71875 98.179688 52.46875 97.980469 52.773438 L 97.632812 53.324219 L 97.269531 53.09375 C 96.976562 52.910156 96.835938 52.886719 96.574219 52.984375 C 96.132812 53.128906 96.144531 52.988281 96.710938 51.984375 C 97.324219 50.882812 97.4375 50.417969 97.292969 49.371094 C 97.222656 48.898438 97.203125 48.5 97.234375 48.492188 C 97.265625 48.488281 97.511719 48.519531 97.785156 48.558594 Z M 99.828125 48.703125 C 100.378906 48.726562 100.476562 48.980469 100.359375 50.03125 C 100.308594 50.496094 100.28125 51.175781 100.300781 51.53125 C 100.328125 52.054688 100.277344 52.316406 100.0625 52.742188 C 99.90625 53.050781 99.769531 53.3125 99.765625 53.332031 C 99.757812 53.355469 99.578125 53.253906 99.371094 53.109375 C 99.054688 52.898438 98.925781 52.882812 98.648438 52.972656 C 98.464844 53.035156 98.304688 53.078125 98.300781 53.058594 C 98.296875 53.035156 98.421875 52.578125 98.582031 52.039062 C 99.226562 49.832031 99.265625 49.476562 98.898438 49.015625 L 98.683594 48.742188 L 99.066406 48.714844 C 99.273438 48.703125 99.617188 48.695312 99.828125 48.703125 Z M 95.835938 51.550781 C 96.199219 51.636719 96.210938 51.738281 95.851562 51.992188 C 95.503906 52.222656 95.179688 52.183594 95.117188 51.890625 C 95.058594 51.597656 95.371094 51.449219 95.835938 51.550781 Z M 93.925781 53.121094 C 95.582031 53.507812 95.464844 53.445312 96.484375 54.375 C 97.210938 55.039062 97.691406 55.371094 98.386719 55.699219 C 99.917969 56.4375 100.03125 56.835938 99.035156 57.859375 C 98.695312 58.191406 98.144531 58.921875 97.800781 59.476562 C 96.179688 62.085938 96.105469 62.175781 95.558594 62.183594 C 95.328125 62.1875 95.210938 62.078125 94.875 61.566406 C 94.433594 60.90625 94.195312 60.714844 91.703125 59.035156 L 90.1875 58.007812 L 90.710938 57.339844 C 91.425781 56.398438 92.207031 55.148438 92.234375 54.878906 C 92.25 54.75 92.414062 54.175781 92.609375 53.597656 L 92.957031 52.554688 L 93.257812 52.796875 C 93.433594 52.929688 93.726562 53.070312 93.925781 53.121094 Z M 92.371094 53.679688 C 92.292969 53.957031 92.195312 54.191406 92.175781 54.195312 C 92.125 54.203125 92.289062 53.535156 92.394531 53.324219 C 92.542969 53.039062 92.527344 53.171875 92.371094 53.679688 Z M 122.78125 47.667969 C 123.035156 47.824219 122.894531 48.011719 122.453125 48.105469 C 121.988281 48.203125 121.757812 47.996094 122.011719 47.710938 C 122.183594 47.515625 122.503906 47.503906 122.78125 47.667969 Z M 97.171875 53.175781 C 97.503906 53.414062 97.496094 53.476562 97.160156 53.632812 C 96.832031 53.773438 96.324219 53.648438 96.273438 53.40625 C 96.207031 53.089844 96.824219 52.929688 97.171875 53.175781 Z M 99.21875 53.191406 C 99.476562 53.308594 99.457031 53.628906 99.195312 53.683594 C 99.046875 53.714844 98.679688 53.613281 98.382812 53.460938 C 98.289062 53.40625 98.578125 53.179688 98.796875 53.132812 C 98.910156 53.109375 99.101562 53.132812 99.21875 53.191406 Z M 91.9375 55.164062 C 91.855469 55.339844 91.65625 55.6875 91.484375 55.921875 C 91.242188 56.269531 91.269531 56.191406 91.589844 55.574219 C 91.996094 54.792969 92.214844 54.535156 91.9375 55.164062 Z M 124.894531 49.457031 C 125.226562 49.585938 125.207031 49.75 124.855469 49.824219 C 124.714844 49.851562 124.457031 49.980469 124.265625 50.113281 C 124.082031 50.246094 123.566406 50.441406 123.128906 50.550781 C 122.6875 50.65625 122.210938 50.828125 122.0625 50.921875 C 121.648438 51.199219 121.652344 51.070312 122.0625 50.617188 C 122.570312 50.046875 122.804688 49.902344 123.402344 49.839844 C 123.710938 49.808594 124.023438 49.710938 124.1875 49.59375 C 124.554688 49.328125 124.574219 49.320312 124.894531 49.457031 Z M 104.5 54.292969 C 105.527344 54.542969 106.515625 54.503906 108.300781 54.144531 C 110.085938 53.796875 109.933594 53.730469 109.691406 54.773438 C 109.597656 55.195312 109.617188 55.476562 109.839844 56.550781 C 110.046875 57.554688 110.082031 57.863281 109.980469 57.988281 C 109.914062 58.078125 109.492188 58.261719 109.050781 58.40625 C 108.597656 58.5625 108.046875 58.738281 107.824219 58.820312 C 107.597656 58.898438 107.265625 59.113281 107.09375 59.296875 C 106.902344 59.484375 106.734375 59.59375 106.703125 59.539062 C 106.667969 59.480469 106.398438 59.433594 106.101562 59.417969 C 105.492188 59.417969 104.585938 59.757812 102.335938 60.847656 C 101.316406 61.34375 97.257812 63.691406 96.855469 64.015625 C 96.605469 64.226562 96.226562 64.78125 96.25 64.902344 C 96.265625 64.964844 96.550781 65.125 96.882812 65.265625 C 98.289062 65.871094 99.667969 66.886719 100.007812 67.566406 L 100.121094 67.804688 L 99.894531 67.628906 C 99.769531 67.539062 99.042969 67.066406 98.28125 66.582031 C 96.890625 65.710938 96.890625 65.710938 95.828125 65.59375 C 95.042969 65.503906 94.675781 65.503906 94.425781 65.609375 L 94.085938 65.753906 L 94.320312 65.316406 C 94.460938 65.085938 94.558594 64.84375 94.546875 64.792969 C 94.539062 64.742188 94.75 64.339844 95.011719 63.894531 C 95.417969 63.226562 95.488281 63.042969 95.414062 62.753906 C 95.335938 62.421875 95.34375 62.410156 95.71875 62.351562 C 96.21875 62.269531 96.476562 62.003906 97.066406 61.003906 C 97.90625 59.582031 98.722656 58.417969 99.253906 57.898438 C 99.863281 57.296875 100 56.992188 99.828125 56.625 C 99.710938 56.367188 99.730469 56.351562 100.238281 56.117188 C 100.527344 55.984375 101.144531 55.582031 101.605469 55.222656 C 102.066406 54.863281 102.664062 54.410156 102.941406 54.226562 C 103.390625 53.921875 103.460938 53.894531 103.632812 54.007812 C 103.738281 54.070312 104.121094 54.199219 104.5 54.292969 Z M 125.113281 50.097656 C 125.089844 50.492188 124.480469 51.347656 124.074219 51.558594 C 123.390625 51.914062 122.195312 52.066406 121.34375 51.917969 C 121.171875 51.890625 121.03125 51.824219 121.023438 51.78125 C 120.988281 51.609375 122.464844 50.847656 123.109375 50.703125 C 123.480469 50.628906 123.964844 50.429688 124.226562 50.269531 C 124.886719 49.859375 125.125 49.808594 125.113281 50.097656 Z M 110.574219 54.378906 C 110.78125 54.621094 111.015625 54.847656 111.097656 54.875 C 111.175781 54.910156 111.453125 55.125 111.726562 55.375 C 112.738281 56.304688 115.417969 57.734375 116.460938 57.898438 L 116.765625 57.949219 L 116.625 58.347656 C 116.558594 58.574219 116.25 59.261719 115.953125 59.894531 C 114.90625 62.128906 114.230469 64.078125 114.144531 65.128906 C 114.105469 65.558594 114.089844 65.574219 113.886719 65.457031 C 113.765625 65.386719 113.585938 65.183594 113.476562 65.003906 C 113.375 64.824219 113.046875 64.40625 112.757812 64.078125 C 111.742188 62.925781 110.910156 60.734375 110.230469 57.417969 C 109.78125 55.261719 109.785156 55.242188 109.9375 54.597656 C 110.023438 54.25 110.105469 53.949219 110.136719 53.941406 C 110.167969 53.9375 110.363281 54.128906 110.574219 54.378906 Z M 93.566406 60.519531 C 94.03125 60.84375 94.386719 61.191406 94.648438 61.582031 C 95.117188 62.277344 94.980469 62.324219 94.328125 61.722656 C 94.082031 61.488281 93.589844 61.09375 93.246094 60.847656 C 92.675781 60.429688 91.601562 59.457031 91.261719 59.042969 C 91.125 58.882812 92.007812 59.449219 93.566406 60.519531 Z M 119.523438 56.382812 C 119.503906 56.484375 119.464844 56.554688 119.4375 56.527344 C 119.402344 56.503906 119.382812 56.402344 119.402344 56.304688 C 119.425781 56.203125 119.460938 56.132812 119.488281 56.160156 C 119.523438 56.183594 119.546875 56.285156 119.523438 56.382812 Z M 110.726562 60.316406 C 111.257812 62.054688 111.90625 63.410156 112.574219 64.199219 C 112.878906 64.546875 113.199219 64.976562 113.308594 65.15625 C 113.40625 65.324219 113.597656 65.539062 113.742188 65.617188 C 114.066406 65.8125 114.210938 66.066406 114.609375 67.0625 C 114.988281 68.039062 115.320312 68.570312 116.347656 69.867188 C 117.414062 71.210938 117.414062 71.21875 117.382812 71.871094 C 117.339844 72.777344 117.535156 74.828125 117.871094 77 C 118.199219 79.066406 118.417969 81.226562 118.359375 81.914062 C 118.300781 82.636719 118.3125 82.601562 118.0625 82.453125 C 117.894531 82.347656 117.796875 82.179688 117.730469 81.855469 C 117.652344 81.480469 117.5625 81.351562 117.214844 81.097656 C 116.929688 80.890625 116.714844 80.621094 116.570312 80.28125 C 116.453125 80.007812 116.082031 79.484375 115.742188 79.121094 C 115.40625 78.769531 115.109375 78.34375 115.078125 78.203125 C 115.046875 78.050781 114.902344 77.796875 114.738281 77.628906 C 114.582031 77.472656 114.246094 76.875 113.996094 76.328125 C 113.742188 75.765625 113.453125 75.226562 113.347656 75.121094 C 113.066406 74.828125 111.738281 72.484375 111.425781 71.738281 C 111.289062 71.386719 110.910156 70.535156 110.613281 69.847656 C 109.632812 67.664062 109.03125 66.195312 108.777344 65.316406 C 108.636719 64.851562 108.363281 64.144531 108.167969 63.753906 C 107.960938 63.363281 107.652344 62.539062 107.484375 61.941406 C 107.308594 61.335938 107.09375 60.617188 106.996094 60.34375 C 106.84375 59.867188 106.84375 59.8125 107.074219 59.566406 C 107.386719 59.238281 107.882812 58.996094 108.851562 58.710938 C 109.273438 58.578125 109.710938 58.414062 109.824219 58.347656 C 110.066406 58.195312 110.101562 58.261719 110.726562 60.316406 Z M 119.445312 57.921875 C 119.597656 58.300781 119.90625 58.882812 120.140625 59.203125 L 120.582031 59.796875 L 120.148438 59.675781 C 119.199219 59.410156 117.039062 59.617188 116.398438 60.035156 C 116.15625 60.179688 116.023438 60.089844 116.214844 59.902344 C 116.269531 59.859375 116.460938 59.417969 116.65625 58.933594 L 116.988281 58.0625 L 117.761719 57.902344 C 118.296875 57.789062 118.613281 57.660156 118.800781 57.503906 C 118.953125 57.367188 119.089844 57.265625 119.117188 57.25 C 119.148438 57.242188 119.296875 57.550781 119.445312 57.921875 Z M 119.210938 59.722656 C 120.03125 59.730469 120.75 60.003906 121.234375 60.464844 C 121.511719 60.734375 121.613281 60.925781 121.707031 61.371094 C 121.808594 61.867188 121.789062 62.027344 121.554688 62.5625 C 121.417969 62.910156 121.15625 63.417969 120.984375 63.707031 C 120.667969 64.207031 120.660156 64.21875 120.335938 64.125 C 119.914062 64.003906 119.292969 64.144531 119.050781 64.40625 C 118.820312 64.652344 118.855469 64.667969 118.484375 64.195312 C 118.324219 63.984375 117.820312 63.519531 117.355469 63.164062 C 116.335938 62.351562 116 61.945312 115.890625 61.417969 C 115.785156 60.910156 116.109375 60.359375 116.695312 60.089844 C 117.175781 59.871094 118.253906 59.710938 119.210938 59.722656 Z M 116.25 62.429688 C 116.425781 62.628906 116.921875 63.050781 117.335938 63.378906 C 117.757812 63.691406 118.230469 64.132812 118.398438 64.339844 C 118.6875 64.714844 118.6875 64.722656 118.578125 65.148438 C 118.519531 65.382812 118.394531 66.179688 118.308594 66.925781 C 118.21875 67.671875 118 68.878906 117.816406 69.617188 L 117.496094 70.949219 L 117.261719 70.683594 C 116.117188 69.324219 115.230469 68.03125 114.902344 67.210938 C 114.757812 66.863281 114.546875 66.355469 114.425781 66.085938 C 114.21875 65.601562 114.222656 65.566406 114.492188 64.488281 C 114.652344 63.882812 114.960938 62.898438 115.1875 62.324219 L 115.59375 61.257812 L 115.75 61.65625 C 115.839844 61.882812 116.058594 62.226562 116.25 62.429688 Z M 93.28125 66.261719 C 93.285156 66.289062 93.257812 66.351562 93.203125 66.394531 C 93.160156 66.433594 93.105469 66.421875 93.09375 66.375 C 93.082031 66.3125 93.121094 66.25 93.171875 66.242188 C 93.230469 66.226562 93.277344 66.238281 93.28125 66.261719 Z M 94.125 67.691406 C 94.445312 67.929688 94.777344 68.21875 94.878906 68.335938 C 94.964844 68.457031 95.421875 68.941406 95.894531 69.433594 C 96.59375 70.175781 97.25 71.023438 97.625 71.652344 C 97.660156 71.730469 97.457031 71.496094 97.152344 71.148438 C 96.847656 70.789062 96.40625 70.332031 96.164062 70.140625 C 95.921875 69.9375 95.46875 69.523438 95.152344 69.207031 C 94.847656 68.890625 94.460938 68.550781 94.300781 68.4375 C 94.148438 68.320312 93.835938 67.929688 93.617188 67.574219 C 93.394531 67.207031 93.285156 67 93.378906 67.085938 C 93.472656 67.183594 93.800781 67.453125 94.125 67.691406 Z M 91.464844 70.039062 C 91.027344 71.21875 90.34375 72.585938 90.492188 71.976562 C 90.644531 71.351562 91.753906 68.859375 91.882812 68.832031 C 91.902344 68.828125 91.714844 69.375 91.464844 70.039062 Z M 98.472656 69.785156 C 98.597656 69.875 98.675781 69.953125 98.648438 69.960938 C 98.617188 69.964844 98.496094 69.894531 98.375 69.804688 C 98.25 69.714844 98.171875 69.636719 98.199219 69.628906 C 98.230469 69.625 98.351562 69.695312 98.472656 69.785156 Z M 117.796875 74.765625 C 117.78125 74.851562 117.746094 74.828125 117.722656 74.714844 C 117.691406 74.605469 117.707031 74.539062 117.746094 74.574219 C 117.78125 74.597656 117.8125 74.6875 117.796875 74.765625 Z M 118.097656 76.710938 C 118.101562 76.84375 118.0625 76.746094 118.007812 76.496094 C 117.957031 76.242188 117.957031 76.136719 118 76.253906 C 118.050781 76.378906 118.089844 76.582031 118.097656 76.710938 Z M 131.015625 80.992188 C 131.28125 81.203125 131.304688 81.324219 131.167969 81.660156 C 130.929688 82.234375 130.066406 82.023438 130.070312 81.390625 C 130.070312 80.828125 130.542969 80.636719 131.015625 80.992188 Z M 131.015625 80.992188 " fill-opacity="1" fill-rule="nonzero"/></g></g></g></g><g clip-path="url(#id8)"><g clip-path="url(#id9)"><g clip-path="url(#id10)"><g clip-path="url(#id11)"><path fill="#000000" d="M 130.703125 81.140625 C 130.710938 81.191406 130.773438 81.234375 130.824219 81.222656 C 130.882812 81.210938 130.914062 81.152344 130.902344 81.101562 C 130.890625 81.039062 130.84375 81.007812 130.78125 81.019531 C 130.730469 81.03125 130.6875 81.082031 130.703125 81.140625 Z M 130.703125 81.140625 " fill-opacity="1" fill-rule="nonzero"/></g></g></g></g><g clip-path="url(#id12)"><g clip-path="url(#id13)"><g clip-path="url(#id14)"><g clip-path="url(#id15)"><path fill="#000000" d="M 125.269531 53.316406 C 125.320312 53.371094 125.542969 53.378906 125.753906 53.332031 C 125.964844 53.289062 126.632812 53.265625 127.234375 53.277344 C 127.835938 53.300781 128.957031 53.226562 129.722656 53.132812 C 131.429688 52.902344 132.085938 52.988281 132.183594 53.453125 C 132.289062 53.96875 132.730469 54.671875 133.886719 56.140625 C 134.648438 57.125 135.117188 57.816406 135.335938 58.320312 C 135.515625 58.726562 135.921875 59.511719 136.230469 60.046875 C 136.8125 61.066406 137.78125 63.261719 138.328125 64.765625 C 138.484375 65.230469 138.8125 65.890625 139.046875 66.253906 C 139.675781 67.222656 140.449219 68.613281 140.746094 69.332031 C 140.882812 69.683594 141.175781 70.195312 141.390625 70.46875 C 141.605469 70.738281 141.851562 71.121094 141.933594 71.304688 C 142.015625 71.488281 142.347656 72.128906 142.671875 72.726562 C 143.089844 73.484375 143.363281 74.144531 143.585938 74.910156 C 144.066406 76.511719 144.496094 77.511719 145.328125 78.945312 C 145.917969 79.953125 146.109375 80.367188 146.238281 80.949219 C 146.375 81.546875 146.433594 81.671875 146.546875 81.617188 C 146.664062 81.570312 146.660156 81.414062 146.546875 80.910156 C 146.433594 80.414062 146.191406 79.914062 145.570312 78.839844 C 144.71875 77.371094 144.253906 76.292969 143.707031 74.527344 C 143.503906 73.863281 143.210938 73.160156 142.882812 72.585938 C 142.601562 72.09375 142.289062 71.496094 142.175781 71.253906 C 142.070312 71.011719 141.789062 70.554688 141.5625 70.21875 C 141.324219 69.890625 140.921875 69.160156 140.65625 68.59375 C 140.382812 68.035156 139.84375 67.058594 139.449219 66.433594 C 139.058594 65.808594 138.714844 65.171875 138.679688 65.007812 C 138.636719 64.785156 138.734375 64.511719 139.070312 63.957031 C 139.753906 62.800781 140.042969 62.066406 140.417969 60.445312 C 140.84375 58.644531 141.429688 57.128906 141.828125 56.824219 C 142.089844 56.621094 142.128906 56.613281 142.453125 56.757812 C 142.886719 56.960938 143.1875 57.355469 143.683594 58.316406 C 143.90625 58.734375 144.390625 59.605469 144.777344 60.253906 C 145.164062 60.902344 145.601562 61.785156 145.761719 62.207031 C 145.925781 62.636719 146.367188 63.503906 146.753906 64.144531 C 147.519531 65.410156 148.15625 67.011719 148.828125 69.375 C 149.484375 71.675781 149.820312 72.632812 150.507812 74.167969 C 151.253906 75.839844 151.855469 76.910156 152.722656 78.113281 C 153.046875 78.550781 153.472656 79.183594 153.664062 79.5 C 153.859375 79.832031 154.066406 80.082031 154.109375 80.074219 C 154.160156 80.0625 154.195312 80.035156 154.191406 80.015625 C 154.160156 79.863281 153.148438 78.277344 152.664062 77.628906 C 151.363281 75.859375 150.214844 73.3125 149.324219 70.242188 C 148.386719 67.003906 147.734375 65.292969 147 64.125 C 146.386719 63.152344 146.246094 62.875 145.871094 61.929688 C 145.691406 61.46875 145.363281 60.800781 145.132812 60.445312 C 144.898438 60.082031 144.570312 59.507812 144.394531 59.164062 C 144.214844 58.820312 143.953125 58.304688 143.796875 58.019531 C 143.523438 57.503906 143.523438 57.503906 143.777344 57.71875 C 143.90625 57.835938 144.605469 58.664062 145.304688 59.5625 C 146.328125 60.851562 146.695312 61.410156 147.074219 62.207031 C 147.433594 62.976562 147.644531 63.28125 147.933594 63.507812 C 148.46875 63.921875 148.703125 64.296875 149.003906 65.175781 C 149.152344 65.597656 149.570312 66.683594 149.925781 67.59375 C 150.40625 68.792969 150.652344 69.574219 150.835938 70.457031 C 151.390625 73.066406 152.449219 76.183594 153.382812 77.953125 C 154.335938 79.761719 154.449219 79.941406 154.597656 79.953125 C 154.695312 79.964844 154.707031 79.917969 154.628906 79.796875 C 154.441406 79.507812 153.304688 77.367188 153.039062 76.808594 C 152.523438 75.734375 151.742188 73.234375 151.109375 70.714844 C 150.675781 68.925781 150.238281 67.6875 148.921875 64.378906 C 148.769531 64.007812 148.585938 63.773438 148.246094 63.503906 C 147.898438 63.238281 147.679688 62.957031 147.445312 62.476562 C 146.824219 61.214844 146.605469 60.867188 145.546875 59.515625 C 144.191406 57.789062 142.980469 56.5625 141.867188 55.8125 C 140.765625 55.046875 140.226562 54.820312 139.425781 54.765625 C 136.453125 54.5625 135.398438 54.335938 134.140625 53.636719 C 133.796875 53.445312 133.222656 53.207031 132.875 53.097656 C 132.519531 53.003906 132.070312 52.8125 131.867188 52.695312 C 131.21875 52.300781 131.0625 52.304688 128.871094 52.664062 C 127.722656 52.851562 126.433594 53.054688 125.984375 53.117188 C 125.421875 53.191406 125.214844 53.253906 125.269531 53.316406 Z M 131.3125 52.695312 C 131.445312 52.78125 131.449219 52.804688 131.324219 52.753906 C 131.234375 52.730469 130.746094 52.757812 130.234375 52.824219 L 129.292969 52.933594 L 130.222656 52.753906 C 130.871094 52.640625 131.199219 52.613281 131.3125 52.695312 Z M 134.121094 53.84375 C 135.179688 54.4375 135.96875 54.652344 137.609375 54.808594 C 138.464844 54.894531 139.320312 54.957031 139.507812 54.960938 C 139.769531 54.960938 139.855469 55.015625 139.894531 55.207031 C 139.964844 55.542969 139.847656 56.136719 139.535156 56.960938 C 139.296875 57.582031 139.109375 58.496094 138.929688 59.898438 C 138.902344 60.167969 138.761719 60.703125 138.628906 61.070312 C 138.132812 62.429688 138.09375 62.691406 138.242188 63.453125 C 138.3125 63.851562 138.34375 64.085938 138.289062 63.980469 C 138.246094 63.875 137.96875 63.195312 137.671875 62.472656 C 137.375 61.753906 136.867188 60.6875 136.550781 60.117188 C 136.222656 59.542969 135.78125 58.683594 135.578125 58.207031 C 135.300781 57.589844 134.964844 57.078125 134.429688 56.429688 C 133.261719 55.015625 132.625 54.058594 132.527344 53.601562 L 132.445312 53.207031 L 132.980469 53.351562 C 133.269531 53.429688 133.789062 53.65625 134.121094 53.84375 Z M 140.878906 55.394531 C 141.230469 55.574219 141.777344 55.925781 142.09375 56.175781 C 142.398438 56.429688 142.527344 56.5625 142.386719 56.484375 C 142.125 56.339844 142.117188 56.339844 141.71875 56.644531 C 141.5 56.816406 141.265625 57.097656 141.207031 57.269531 C 141.148438 57.441406 140.976562 57.878906 140.839844 58.222656 C 140.699219 58.570312 140.417969 59.535156 140.214844 60.378906 C 139.792969 62.074219 139.441406 63.011719 138.941406 63.742188 L 138.605469 64.234375 L 138.464844 63.363281 C 138.324219 62.527344 138.328125 62.464844 138.660156 61.582031 C 138.851562 61.078125 139.042969 60.390625 139.089844 60.066406 C 139.394531 58.144531 139.503906 57.558594 139.683594 57.121094 C 139.9375 56.507812 140.171875 55.519531 140.121094 55.277344 C 140.066406 55.023438 140.164062 55.035156 140.878906 55.394531 Z M 140.878906 55.394531 " fill-opacity="1" fill-rule="nonzero"/></g></g></g></g><g fill="#000000" fill-opacity="0.4"><g transform="translate(38.821425, 54.059758)"><g><path d="M 24.171875 -12.640625 C 24.285156 -12.691406 24.367188 -12.613281 24.421875 -12.40625 C 24.472656 -12.207031 24.425781 -12.082031 24.28125 -12.03125 C 24.15625 -11.96875 24.050781 -11.859375 23.96875 -11.703125 C 23.882812 -11.554688 23.863281 -11.414062 23.90625 -11.28125 C 24.289062 -10.101562 24.476562 -8.910156 24.46875 -7.703125 C 24.457031 -6.503906 24.320312 -5.316406 24.0625 -4.140625 C 23.5625 -1.679688 22.757812 0.609375 21.65625 2.734375 C 20.5625 4.867188 19.109375 6.820312 17.296875 8.59375 C 16.304688 9.5625 15.234375 10.382812 14.078125 11.0625 C 12.921875 11.738281 11.65625 12.234375 10.28125 12.546875 C 9.144531 12.828125 8.007812 12.84375 6.875 12.59375 C 5.5 12.257812 4.457031 11.585938 3.75 10.578125 C 3.050781 9.578125 2.769531 8.375 2.90625 6.96875 C 3.09375 5.59375 3.609375 4.203125 4.453125 2.796875 C 5.304688 1.398438 6.367188 0.0351562 7.640625 -1.296875 C 8.921875 -2.628906 10.300781 -3.878906 11.78125 -5.046875 C 13.257812 -6.222656 14.703125 -7.28125 16.109375 -8.21875 C 17.515625 -9.164062 18.785156 -9.941406 19.921875 -10.546875 C 20.234375 -10.734375 20.539062 -10.90625 20.84375 -11.0625 C 21.15625 -11.207031 21.46875 -11.367188 21.78125 -11.546875 C 22.0625 -11.679688 22.117188 -11.863281 21.953125 -12.09375 C 21.316406 -13.1875 20.453125 -14.03125 19.359375 -14.625 C 18.554688 -15.050781 17.734375 -15.363281 16.890625 -15.5625 C 16.046875 -15.769531 15.1875 -15.894531 14.3125 -15.9375 C 11.664062 -16.070312 9.039062 -15.8125 6.4375 -15.15625 C 6.269531 -15.132812 6.09375 -15.09375 5.90625 -15.03125 C 5.695312 -14.945312 5.617188 -14.800781 5.671875 -14.59375 C 5.722656 -14.34375 5.785156 -14.09375 5.859375 -13.84375 C 6.410156 -11.914062 6.976562 -9.984375 7.5625 -8.046875 C 7.800781 -7.203125 8.046875 -6.347656 8.296875 -5.484375 C 8.316406 -5.429688 8.332031 -5.382812 8.34375 -5.34375 C 8.382812 -5.207031 8.421875 -5.082031 8.453125 -4.96875 C 8.554688 -4.394531 8.328125 -4.109375 7.765625 -4.109375 C 7.546875 -4.128906 7.398438 -4.234375 7.328125 -4.421875 C 7.222656 -4.691406 7.132812 -4.972656 7.0625 -5.265625 C 6.53125 -7.003906 6.007812 -8.738281 5.5 -10.46875 C 5.238281 -11.34375 4.976562 -12.207031 4.71875 -13.0625 C 4.695312 -13.144531 4.675781 -13.222656 4.65625 -13.296875 C 4.59375 -13.503906 4.519531 -13.71875 4.4375 -13.9375 C 4.375 -14.164062 4.296875 -14.304688 4.203125 -14.359375 C 4.117188 -14.410156 3.960938 -14.410156 3.734375 -14.359375 C 3.628906 -14.328125 3.535156 -14.300781 3.453125 -14.28125 C 3.210938 -14.226562 2.976562 -14.179688 2.75 -14.140625 C 2.550781 -14.097656 2.382812 -14.160156 2.25 -14.328125 C 2.132812 -14.535156 2.140625 -14.742188 2.265625 -14.953125 C 2.460938 -15.222656 2.671875 -15.488281 2.890625 -15.75 C 2.960938 -15.863281 3.039062 -15.960938 3.125 -16.046875 C 3.289062 -16.234375 3.40625 -16.378906 3.46875 -16.484375 C 3.53125 -16.597656 3.554688 -16.710938 3.546875 -16.828125 C 3.535156 -16.941406 3.492188 -17.117188 3.421875 -17.359375 C 3.367188 -17.492188 3.3125 -17.65625 3.25 -17.84375 C 2.863281 -19.226562 2.460938 -20.625 2.046875 -22.03125 C 1.804688 -22.800781 1.570312 -23.582031 1.34375 -24.375 C 1.34375 -24.382812 1.335938 -24.398438 1.328125 -24.421875 C 1.242188 -24.691406 1.175781 -24.960938 1.125 -25.234375 C 1.050781 -25.578125 1.203125 -25.796875 1.578125 -25.890625 C 1.921875 -26.003906 2.164062 -25.914062 2.3125 -25.625 C 2.445312 -25.289062 2.5625 -24.957031 2.65625 -24.625 C 2.90625 -23.789062 3.15625 -22.957031 3.40625 -22.125 C 3.707031 -21.101562 4.015625 -20.097656 4.328125 -19.109375 C 4.335938 -19.023438 4.351562 -18.945312 4.375 -18.875 C 4.425781 -18.59375 4.5625 -18.285156 4.78125 -17.953125 C 5.457031 -18.660156 6.257812 -19.546875 7.1875 -20.609375 C 8.125 -21.671875 9.066406 -22.789062 10.015625 -23.96875 C 10.960938 -25.144531 11.773438 -26.28125 12.453125 -27.375 C 13.128906 -28.46875 13.539062 -29.414062 13.6875 -30.21875 C 13.832031 -31.132812 13.460938 -31.738281 12.578125 -32.03125 C 11.503906 -32.375 10.25 -32.363281 8.8125 -32 C 7.382812 -31.632812 5.929688 -31.035156 4.453125 -30.203125 C 2.984375 -29.378906 1.671875 -28.445312 0.515625 -27.40625 C -0.640625 -26.375 -1.492188 -25.347656 -2.046875 -24.328125 C -2.210938 -23.972656 -2.335938 -23.585938 -2.421875 -23.171875 C -2.515625 -22.753906 -2.566406 -22.347656 -2.578125 -21.953125 C -2.597656 -21.710938 -2.722656 -21.535156 -2.953125 -21.421875 C -3.191406 -21.316406 -3.425781 -21.328125 -3.65625 -21.453125 C -3.769531 -21.535156 -3.832031 -21.660156 -3.84375 -21.828125 C -3.851562 -22.273438 -3.769531 -22.710938 -3.59375 -23.140625 C -3.0625 -24.523438 -2.117188 -25.875 -0.765625 -27.1875 C 0.585938 -28.5 2.140625 -29.644531 3.890625 -30.625 C 5.640625 -31.613281 7.363281 -32.320312 9.0625 -32.75 C 10.769531 -33.1875 12.25 -33.207031 13.5 -32.8125 C 14.757812 -32.40625 15.257812 -31.539062 15 -30.21875 C 14.851562 -29.570312 14.566406 -28.867188 14.140625 -28.109375 C 13.722656 -27.347656 13.257812 -26.601562 12.75 -25.875 C 12.238281 -25.15625 11.78125 -24.53125 11.375 -24 C 10.625 -23.019531 9.84375 -22.066406 9.03125 -21.140625 C 8.226562 -20.222656 7.414062 -19.3125 6.59375 -18.40625 C 6.570312 -18.382812 6.550781 -18.359375 6.53125 -18.328125 C 6.113281 -17.890625 5.707031 -17.445312 5.3125 -17 C 5.050781 -16.644531 5.050781 -16.269531 5.3125 -15.875 C 5.332031 -15.84375 5.375 -15.8125 5.4375 -15.78125 C 5.5 -15.75 5.550781 -15.738281 5.59375 -15.75 C 5.800781 -15.769531 6.003906 -15.8125 6.203125 -15.875 C 6.210938 -15.875 6.226562 -15.878906 6.25 -15.890625 C 8.9375 -16.617188 11.664062 -16.9375 14.4375 -16.84375 C 15.957031 -16.8125 17.445312 -16.550781 18.90625 -16.0625 C 19.78125 -15.757812 20.570312 -15.351562 21.28125 -14.84375 C 21.988281 -14.332031 22.597656 -13.6875 23.109375 -12.90625 C 23.265625 -12.644531 23.398438 -12.5 23.515625 -12.46875 C 23.628906 -12.4375 23.847656 -12.492188 24.171875 -12.640625 Z M 22.8125 -9.9375 C 22.707031 -10.46875 22.578125 -10.769531 22.421875 -10.84375 C 22.265625 -10.914062 21.945312 -10.8125 21.46875 -10.53125 C 20.34375 -9.925781 19.09375 -9.175781 17.71875 -8.28125 C 16.34375 -7.394531 14.945312 -6.394531 13.53125 -5.28125 C 12.125 -4.164062 10.804688 -2.972656 9.578125 -1.703125 C 8.359375 -0.429688 7.332031 0.875 6.5 2.21875 C 5.675781 3.5625 5.164062 4.925781 4.96875 6.3125 C 4.832031 7.351562 4.90625 8.28125 5.1875 9.09375 C 5.46875 9.90625 5.882812 10.550781 6.4375 11.03125 C 7 11.507812 7.628906 11.78125 8.328125 11.84375 C 9.210938 11.90625 10.097656 11.820312 10.984375 11.59375 C 11.046875 11.582031 11.09375 11.554688 11.125 11.515625 C 11.25 11.472656 11.367188 11.429688 11.484375 11.390625 C 13.066406 10.753906 14.472656 9.859375 15.703125 8.703125 C 17.941406 6.617188 19.65625 4.28125 20.84375 1.6875 C 22.039062 -0.894531 22.765625 -3.695312 23.015625 -6.71875 C 23.097656 -7.8125 23.03125 -8.882812 22.8125 -9.9375 Z M 22.8125 -9.9375 "/></g></g></g><g fill="#000000" fill-opacity="0.4"><g transform="translate(65.619242, 46.094866)"><g><path d="M 34.390625 -17.25 C 34.597656 -17.269531 34.742188 -17.1875 34.828125 -17 C 34.859375 -16.882812 34.84375 -16.789062 34.78125 -16.71875 C 34.71875 -16.65625 34.648438 -16.609375 34.578125 -16.578125 C 33.859375 -16.316406 33.140625 -16.0625 32.421875 -15.8125 C 32.316406 -15.78125 32.21875 -15.742188 32.125 -15.703125 C 31.96875 -15.660156 31.816406 -15.601562 31.671875 -15.53125 C 31.429688 -15.457031 31.203125 -15.378906 30.984375 -15.296875 C 30.804688 -15.242188 30.695312 -15.175781 30.65625 -15.09375 C 30.613281 -15.019531 30.613281 -14.894531 30.65625 -14.71875 C 30.882812 -13.664062 31.117188 -12.613281 31.359375 -11.5625 C 31.835938 -9.5625 32.226562 -7.550781 32.53125 -5.53125 C 32.570312 -5.207031 32.617188 -4.882812 32.671875 -4.5625 C 32.753906 -4.1875 32.820312 -3.8125 32.875 -3.4375 C 32.925781 -3.03125 32.757812 -2.789062 32.375 -2.71875 C 32.050781 -2.644531 31.84375 -2.75 31.75 -3.03125 C 31.5625 -3.789062 31.378906 -4.550781 31.203125 -5.3125 C 31.003906 -6.195312 30.804688 -7.070312 30.609375 -7.9375 C 30.242188 -9.644531 29.859375 -11.347656 29.453125 -13.046875 C 29.398438 -13.253906 29.359375 -13.441406 29.328125 -13.609375 C 29.253906 -13.972656 29.175781 -14.226562 29.09375 -14.375 C 29.019531 -14.53125 28.890625 -14.59375 28.703125 -14.5625 C 28.515625 -14.53125 28.210938 -14.429688 27.796875 -14.265625 C 27.660156 -14.210938 27.523438 -14.164062 27.390625 -14.125 C 25.597656 -13.46875 23.789062 -12.894531 21.96875 -12.40625 C 21.394531 -12.269531 21.101562 -12.328125 21.09375 -12.578125 C 21.09375 -12.734375 21.144531 -12.84375 21.25 -12.90625 C 21.351562 -12.976562 21.460938 -13.023438 21.578125 -13.046875 C 21.628906 -13.054688 21.675781 -13.070312 21.71875 -13.09375 C 22.65625 -13.425781 23.585938 -13.742188 24.515625 -14.046875 C 24.628906 -14.097656 24.75 -14.144531 24.875 -14.1875 C 25.363281 -14.34375 25.859375 -14.5 26.359375 -14.65625 C 27.003906 -14.851562 27.648438 -15.066406 28.296875 -15.296875 C 28.515625 -15.359375 28.648438 -15.4375 28.703125 -15.53125 C 28.765625 -15.625 28.769531 -15.789062 28.71875 -16.03125 C 28.675781 -16.25 28.628906 -16.460938 28.578125 -16.671875 C 28.390625 -17.441406 28.195312 -18.207031 28 -18.96875 C 27.6875 -20.332031 27.34375 -21.695312 26.96875 -23.0625 C 26.601562 -24.425781 26.195312 -25.78125 25.75 -27.125 C 25.34375 -28.300781 24.90625 -29.46875 24.4375 -30.625 C 23.96875 -31.78125 23.429688 -32.910156 22.828125 -34.015625 C 22.546875 -34.523438 22.226562 -35.019531 21.875 -35.5 C 21.375 -36.144531 20.796875 -36.570312 20.140625 -36.78125 C 19.484375 -36.988281 18.765625 -37 17.984375 -36.8125 C 17.472656 -36.6875 16.976562 -36.519531 16.5 -36.3125 C 16.03125 -36.101562 15.570312 -35.878906 15.125 -35.640625 C 13.101562 -34.578125 11.203125 -33.363281 9.421875 -32 C 7.640625 -30.644531 5.957031 -29.160156 4.375 -27.546875 C 2.570312 -25.742188 0.984375 -23.773438 -0.390625 -21.640625 C -1.097656 -20.546875 -1.679688 -19.382812 -2.140625 -18.15625 C -2.398438 -17.457031 -2.550781 -16.726562 -2.59375 -15.96875 C -2.613281 -14.800781 -2.050781 -14.082031 -0.90625 -13.8125 C 0.1875 -13.550781 1.285156 -13.554688 2.390625 -13.828125 C 2.890625 -13.941406 3.382812 -14.070312 3.875 -14.21875 C 4.132812 -14.289062 4.394531 -14.363281 4.65625 -14.4375 C 4.90625 -14.519531 5.15625 -14.570312 5.40625 -14.59375 C 5.457031 -14.601562 5.507812 -14.585938 5.5625 -14.546875 C 5.613281 -14.515625 5.65625 -14.476562 5.6875 -14.4375 C 5.695312 -14.394531 5.691406 -14.34375 5.671875 -14.28125 C 5.648438 -14.21875 5.628906 -14.171875 5.609375 -14.140625 C 5.472656 -14.023438 5.316406 -13.9375 5.140625 -13.875 C 5.046875 -13.84375 4.945312 -13.8125 4.84375 -13.78125 C 4.15625 -13.539062 3.457031 -13.332031 2.75 -13.15625 C 2.050781 -12.976562 1.332031 -12.859375 0.59375 -12.796875 C -0.257812 -12.722656 -1.109375 -12.800781 -1.953125 -13.03125 C -3.359375 -13.445312 -4.039062 -14.390625 -4 -15.859375 C -3.96875 -16.609375 -3.828125 -17.332031 -3.578125 -18.03125 C -3.015625 -19.550781 -2.28125 -20.96875 -1.375 -22.28125 C -0.269531 -23.882812 0.929688 -25.394531 2.234375 -26.8125 C 3.546875 -28.238281 4.941406 -29.566406 6.421875 -30.796875 C 8.691406 -32.773438 11.132812 -34.476562 13.75 -35.90625 C 14.5 -36.320312 15.269531 -36.691406 16.0625 -37.015625 C 16.851562 -37.335938 17.664062 -37.582031 18.5 -37.75 C 19.570312 -37.945312 20.523438 -37.882812 21.359375 -37.5625 C 22.203125 -37.238281 22.941406 -36.632812 23.578125 -35.75 C 23.953125 -35.164062 24.296875 -34.566406 24.609375 -33.953125 C 24.921875 -33.335938 25.210938 -32.71875 25.484375 -32.09375 C 26.171875 -30.53125 26.78125 -28.941406 27.3125 -27.328125 C 27.851562 -25.722656 28.332031 -24.09375 28.75 -22.4375 C 28.800781 -22.238281 28.851562 -22.039062 28.90625 -21.84375 C 29.3125 -20.15625 29.722656 -18.453125 30.140625 -16.734375 C 30.148438 -16.691406 30.160156 -16.660156 30.171875 -16.640625 C 30.171875 -16.585938 30.175781 -16.539062 30.1875 -16.5 C 30.269531 -16.175781 30.457031 -16.054688 30.75 -16.140625 C 31.238281 -16.296875 31.726562 -16.460938 32.21875 -16.640625 C 32.289062 -16.671875 32.367188 -16.695312 32.453125 -16.71875 C 32.609375 -16.769531 32.765625 -16.820312 32.921875 -16.875 C 33.191406 -16.96875 33.453125 -17.0625 33.703125 -17.15625 C 33.929688 -17.207031 34.160156 -17.238281 34.390625 -17.25 Z M 34.390625 -17.25 "/></g></g></g><g fill="#14397d" fill-opacity="1"><g transform="translate(37.837466, 53.52669)"><g><path d="M 24.171875 -12.640625 C 24.285156 -12.691406 24.367188 -12.613281 24.421875 -12.40625 C 24.472656 -12.207031 24.425781 -12.082031 24.28125 -12.03125 C 24.15625 -11.96875 24.050781 -11.859375 23.96875 -11.703125 C 23.882812 -11.554688 23.863281 -11.414062 23.90625 -11.28125 C 24.289062 -10.101562 24.476562 -8.910156 24.46875 -7.703125 C 24.457031 -6.503906 24.320312 -5.316406 24.0625 -4.140625 C 23.5625 -1.679688 22.757812 0.609375 21.65625 2.734375 C 20.5625 4.867188 19.109375 6.820312 17.296875 8.59375 C 16.304688 9.5625 15.234375 10.382812 14.078125 11.0625 C 12.921875 11.738281 11.65625 12.234375 10.28125 12.546875 C 9.144531 12.828125 8.007812 12.84375 6.875 12.59375 C 5.5 12.257812 4.457031 11.585938 3.75 10.578125 C 3.050781 9.578125 2.769531 8.375 2.90625 6.96875 C 3.09375 5.59375 3.609375 4.203125 4.453125 2.796875 C 5.304688 1.398438 6.367188 0.0351562 7.640625 -1.296875 C 8.921875 -2.628906 10.300781 -3.878906 11.78125 -5.046875 C 13.257812 -6.222656 14.703125 -7.28125 16.109375 -8.21875 C 17.515625 -9.164062 18.785156 -9.941406 19.921875 -10.546875 C 20.234375 -10.734375 20.539062 -10.90625 20.84375 -11.0625 C 21.15625 -11.207031 21.46875 -11.367188 21.78125 -11.546875 C 22.0625 -11.679688 22.117188 -11.863281 21.953125 -12.09375 C 21.316406 -13.1875 20.453125 -14.03125 19.359375 -14.625 C 18.554688 -15.050781 17.734375 -15.363281 16.890625 -15.5625 C 16.046875 -15.769531 15.1875 -15.894531 14.3125 -15.9375 C 11.664062 -16.070312 9.039062 -15.8125 6.4375 -15.15625 C 6.269531 -15.132812 6.09375 -15.09375 5.90625 -15.03125 C 5.695312 -14.945312 5.617188 -14.800781 5.671875 -14.59375 C 5.722656 -14.34375 5.785156 -14.09375 5.859375 -13.84375 C 6.410156 -11.914062 6.976562 -9.984375 7.5625 -8.046875 C 7.800781 -7.203125 8.046875 -6.347656 8.296875 -5.484375 C 8.316406 -5.429688 8.332031 -5.382812 8.34375 -5.34375 C 8.382812 -5.207031 8.421875 -5.082031 8.453125 -4.96875 C 8.554688 -4.394531 8.328125 -4.109375 7.765625 -4.109375 C 7.546875 -4.128906 7.398438 -4.234375 7.328125 -4.421875 C 7.222656 -4.691406 7.132812 -4.972656 7.0625 -5.265625 C 6.53125 -7.003906 6.007812 -8.738281 5.5 -10.46875 C 5.238281 -11.34375 4.976562 -12.207031 4.71875 -13.0625 C 4.695312 -13.144531 4.675781 -13.222656 4.65625 -13.296875 C 4.59375 -13.503906 4.519531 -13.71875 4.4375 -13.9375 C 4.375 -14.164062 4.296875 -14.304688 4.203125 -14.359375 C 4.117188 -14.410156 3.960938 -14.410156 3.734375 -14.359375 C 3.628906 -14.328125 3.535156 -14.300781 3.453125 -14.28125 C 3.210938 -14.226562 2.976562 -14.179688 2.75 -14.140625 C 2.550781 -14.097656 2.382812 -14.160156 2.25 -14.328125 C 2.132812 -14.535156 2.140625 -14.742188 2.265625 -14.953125 C 2.460938 -15.222656 2.671875 -15.488281 2.890625 -15.75 C 2.960938 -15.863281 3.039062 -15.960938 3.125 -16.046875 C 3.289062 -16.234375 3.40625 -16.378906 3.46875 -16.484375 C 3.53125 -16.597656 3.554688 -16.710938 3.546875 -16.828125 C 3.535156 -16.941406 3.492188 -17.117188 3.421875 -17.359375 C 3.367188 -17.492188 3.3125 -17.65625 3.25 -17.84375 C 2.863281 -19.226562 2.460938 -20.625 2.046875 -22.03125 C 1.804688 -22.800781 1.570312 -23.582031 1.34375 -24.375 C 1.34375 -24.382812 1.335938 -24.398438 1.328125 -24.421875 C 1.242188 -24.691406 1.175781 -24.960938 1.125 -25.234375 C 1.050781 -25.578125 1.203125 -25.796875 1.578125 -25.890625 C 1.921875 -26.003906 2.164062 -25.914062 2.3125 -25.625 C 2.445312 -25.289062 2.5625 -24.957031 2.65625 -24.625 C 2.90625 -23.789062 3.15625 -22.957031 3.40625 -22.125 C 3.707031 -21.101562 4.015625 -20.097656 4.328125 -19.109375 C 4.335938 -19.023438 4.351562 -18.945312 4.375 -18.875 C 4.425781 -18.59375 4.5625 -18.285156 4.78125 -17.953125 C 5.457031 -18.660156 6.257812 -19.546875 7.1875 -20.609375 C 8.125 -21.671875 9.066406 -22.789062 10.015625 -23.96875 C 10.960938 -25.144531 11.773438 -26.28125 12.453125 -27.375 C 13.128906 -28.46875 13.539062 -29.414062 13.6875 -30.21875 C 13.832031 -31.132812 13.460938 -31.738281 12.578125 -32.03125 C 11.503906 -32.375 10.25 -32.363281 8.8125 -32 C 7.382812 -31.632812 5.929688 -31.035156 4.453125 -30.203125 C 2.984375 -29.378906 1.671875 -28.445312 0.515625 -27.40625 C -0.640625 -26.375 -1.492188 -25.347656 -2.046875 -24.328125 C -2.210938 -23.972656 -2.335938 -23.585938 -2.421875 -23.171875 C -2.515625 -22.753906 -2.566406 -22.347656 -2.578125 -21.953125 C -2.597656 -21.710938 -2.722656 -21.535156 -2.953125 -21.421875 C -3.191406 -21.316406 -3.425781 -21.328125 -3.65625 -21.453125 C -3.769531 -21.535156 -3.832031 -21.660156 -3.84375 -21.828125 C -3.851562 -22.273438 -3.769531 -22.710938 -3.59375 -23.140625 C -3.0625 -24.523438 -2.117188 -25.875 -0.765625 -27.1875 C 0.585938 -28.5 2.140625 -29.644531 3.890625 -30.625 C 5.640625 -31.613281 7.363281 -32.320312 9.0625 -32.75 C 10.769531 -33.1875 12.25 -33.207031 13.5 -32.8125 C 14.757812 -32.40625 15.257812 -31.539062 15 -30.21875 C 14.851562 -29.570312 14.566406 -28.867188 14.140625 -28.109375 C 13.722656 -27.347656 13.257812 -26.601562 12.75 -25.875 C 12.238281 -25.15625 11.78125 -24.53125 11.375 -24 C 10.625 -23.019531 9.84375 -22.066406 9.03125 -21.140625 C 8.226562 -20.222656 7.414062 -19.3125 6.59375 -18.40625 C 6.570312 -18.382812 6.550781 -18.359375 6.53125 -18.328125 C 6.113281 -17.890625 5.707031 -17.445312 5.3125 -17 C 5.050781 -16.644531 5.050781 -16.269531 5.3125 -15.875 C 5.332031 -15.84375 5.375 -15.8125 5.4375 -15.78125 C 5.5 -15.75 5.550781 -15.738281 5.59375 -15.75 C 5.800781 -15.769531 6.003906 -15.8125 6.203125 -15.875 C 6.210938 -15.875 6.226562 -15.878906 6.25 -15.890625 C 8.9375 -16.617188 11.664062 -16.9375 14.4375 -16.84375 C 15.957031 -16.8125 17.445312 -16.550781 18.90625 -16.0625 C 19.78125 -15.757812 20.570312 -15.351562 21.28125 -14.84375 C 21.988281 -14.332031 22.597656 -13.6875 23.109375 -12.90625 C 23.265625 -12.644531 23.398438 -12.5 23.515625 -12.46875 C 23.628906 -12.4375 23.847656 -12.492188 24.171875 -12.640625 Z M 22.8125 -9.9375 C 22.707031 -10.46875 22.578125 -10.769531 22.421875 -10.84375 C 22.265625 -10.914062 21.945312 -10.8125 21.46875 -10.53125 C 20.34375 -9.925781 19.09375 -9.175781 17.71875 -8.28125 C 16.34375 -7.394531 14.945312 -6.394531 13.53125 -5.28125 C 12.125 -4.164062 10.804688 -2.972656 9.578125 -1.703125 C 8.359375 -0.429688 7.332031 0.875 6.5 2.21875 C 5.675781 3.5625 5.164062 4.925781 4.96875 6.3125 C 4.832031 7.351562 4.90625 8.28125 5.1875 9.09375 C 5.46875 9.90625 5.882812 10.550781 6.4375 11.03125 C 7 11.507812 7.628906 11.78125 8.328125 11.84375 C 9.210938 11.90625 10.097656 11.820312 10.984375 11.59375 C 11.046875 11.582031 11.09375 11.554688 11.125 11.515625 C 11.25 11.472656 11.367188 11.429688 11.484375 11.390625 C 13.066406 10.753906 14.472656 9.859375 15.703125 8.703125 C 17.941406 6.617188 19.65625 4.28125 20.84375 1.6875 C 22.039062 -0.894531 22.765625 -3.695312 23.015625 -6.71875 C 23.097656 -7.8125 23.03125 -8.882812 22.8125 -9.9375 Z M 22.8125 -9.9375 "/></g></g></g><g fill="#14397d" fill-opacity="1"><g transform="translate(64.635283, 45.561799)"><g><path d="M 34.390625 -17.25 C 34.597656 -17.269531 34.742188 -17.1875 34.828125 -17 C 34.859375 -16.882812 34.84375 -16.789062 34.78125 -16.71875 C 34.71875 -16.65625 34.648438 -16.609375 34.578125 -16.578125 C 33.859375 -16.316406 33.140625 -16.0625 32.421875 -15.8125 C 32.316406 -15.78125 32.21875 -15.742188 32.125 -15.703125 C 31.96875 -15.660156 31.816406 -15.601562 31.671875 -15.53125 C 31.429688 -15.457031 31.203125 -15.378906 30.984375 -15.296875 C 30.804688 -15.242188 30.695312 -15.175781 30.65625 -15.09375 C 30.613281 -15.019531 30.613281 -14.894531 30.65625 -14.71875 C 30.882812 -13.664062 31.117188 -12.613281 31.359375 -11.5625 C 31.835938 -9.5625 32.226562 -7.550781 32.53125 -5.53125 C 32.570312 -5.207031 32.617188 -4.882812 32.671875 -4.5625 C 32.753906 -4.1875 32.820312 -3.8125 32.875 -3.4375 C 32.925781 -3.03125 32.757812 -2.789062 32.375 -2.71875 C 32.050781 -2.644531 31.84375 -2.75 31.75 -3.03125 C 31.5625 -3.789062 31.378906 -4.550781 31.203125 -5.3125 C 31.003906 -6.195312 30.804688 -7.070312 30.609375 -7.9375 C 30.242188 -9.644531 29.859375 -11.347656 29.453125 -13.046875 C 29.398438 -13.253906 29.359375 -13.441406 29.328125 -13.609375 C 29.253906 -13.972656 29.175781 -14.226562 29.09375 -14.375 C 29.019531 -14.53125 28.890625 -14.59375 28.703125 -14.5625 C 28.515625 -14.53125 28.210938 -14.429688 27.796875 -14.265625 C 27.660156 -14.210938 27.523438 -14.164062 27.390625 -14.125 C 25.597656 -13.46875 23.789062 -12.894531 21.96875 -12.40625 C 21.394531 -12.269531 21.101562 -12.328125 21.09375 -12.578125 C 21.09375 -12.734375 21.144531 -12.84375 21.25 -12.90625 C 21.351562 -12.976562 21.460938 -13.023438 21.578125 -13.046875 C 21.628906 -13.054688 21.675781 -13.070312 21.71875 -13.09375 C 22.65625 -13.425781 23.585938 -13.742188 24.515625 -14.046875 C 24.628906 -14.097656 24.75 -14.144531 24.875 -14.1875 C 25.363281 -14.34375 25.859375 -14.5 26.359375 -14.65625 C 27.003906 -14.851562 27.648438 -15.066406 28.296875 -15.296875 C 28.515625 -15.359375 28.648438 -15.4375 28.703125 -15.53125 C 28.765625 -15.625 28.769531 -15.789062 28.71875 -16.03125 C 28.675781 -16.25 28.628906 -16.460938 28.578125 -16.671875 C 28.390625 -17.441406 28.195312 -18.207031 28 -18.96875 C 27.6875 -20.332031 27.34375 -21.695312 26.96875 -23.0625 C 26.601562 -24.425781 26.195312 -25.78125 25.75 -27.125 C 25.34375 -28.300781 24.90625 -29.46875 24.4375 -30.625 C 23.96875 -31.78125 23.429688 -32.910156 22.828125 -34.015625 C 22.546875 -34.523438 22.226562 -35.019531 21.875 -35.5 C 21.375 -36.144531 20.796875 -36.570312 20.140625 -36.78125 C 19.484375 -36.988281 18.765625 -37 17.984375 -36.8125 C 17.472656 -36.6875 16.976562 -36.519531 16.5 -36.3125 C 16.03125 -36.101562 15.570312 -35.878906 15.125 -35.640625 C 13.101562 -34.578125 11.203125 -33.363281 9.421875 -32 C 7.640625 -30.644531 5.957031 -29.160156 4.375 -27.546875 C 2.570312 -25.742188 0.984375 -23.773438 -0.390625 -21.640625 C -1.097656 -20.546875 -1.679688 -19.382812 -2.140625 -18.15625 C -2.398438 -17.457031 -2.550781 -16.726562 -2.59375 -15.96875 C -2.613281 -14.800781 -2.050781 -14.082031 -0.90625 -13.8125 C 0.1875 -13.550781 1.285156 -13.554688 2.390625 -13.828125 C 2.890625 -13.941406 3.382812 -14.070312 3.875 -14.21875 C 4.132812 -14.289062 4.394531 -14.363281 4.65625 -14.4375 C 4.90625 -14.519531 5.15625 -14.570312 5.40625 -14.59375 C 5.457031 -14.601562 5.507812 -14.585938 5.5625 -14.546875 C 5.613281 -14.515625 5.65625 -14.476562 5.6875 -14.4375 C 5.695312 -14.394531 5.691406 -14.34375 5.671875 -14.28125 C 5.648438 -14.21875 5.628906 -14.171875 5.609375 -14.140625 C 5.472656 -14.023438 5.316406 -13.9375 5.140625 -13.875 C 5.046875 -13.84375 4.945312 -13.8125 4.84375 -13.78125 C 4.15625 -13.539062 3.457031 -13.332031 2.75 -13.15625 C 2.050781 -12.976562 1.332031 -12.859375 0.59375 -12.796875 C -0.257812 -12.722656 -1.109375 -12.800781 -1.953125 -13.03125 C -3.359375 -13.445312 -4.039062 -14.390625 -4 -15.859375 C -3.96875 -16.609375 -3.828125 -17.332031 -3.578125 -18.03125 C -3.015625 -19.550781 -2.28125 -20.96875 -1.375 -22.28125 C -0.269531 -23.882812 0.929688 -25.394531 2.234375 -26.8125 C 3.546875 -28.238281 4.941406 -29.566406 6.421875 -30.796875 C 8.691406 -32.773438 11.132812 -34.476562 13.75 -35.90625 C 14.5 -36.320312 15.269531 -36.691406 16.0625 -37.015625 C 16.851562 -37.335938 17.664062 -37.582031 18.5 -37.75 C 19.570312 -37.945312 20.523438 -37.882812 21.359375 -37.5625 C 22.203125 -37.238281 22.941406 -36.632812 23.578125 -35.75 C 23.953125 -35.164062 24.296875 -34.566406 24.609375 -33.953125 C 24.921875 -33.335938 25.210938 -32.71875 25.484375 -32.09375 C 26.171875 -30.53125 26.78125 -28.941406 27.3125 -27.328125 C 27.851562 -25.722656 28.332031 -24.09375 28.75 -22.4375 C 28.800781 -22.238281 28.851562 -22.039062 28.90625 -21.84375 C 29.3125 -20.15625 29.722656 -18.453125 30.140625 -16.734375 C 30.148438 -16.691406 30.160156 -16.660156 30.171875 -16.640625 C 30.171875 -16.585938 30.175781 -16.539062 30.1875 -16.5 C 30.269531 -16.175781 30.457031 -16.054688 30.75 -16.140625 C 31.238281 -16.296875 31.726562 -16.460938 32.21875 -16.640625 C 32.289062 -16.671875 32.367188 -16.695312 32.453125 -16.71875 C 32.609375 -16.769531 32.765625 -16.820312 32.921875 -16.875 C 33.191406 -16.96875 33.453125 -17.0625 33.703125 -17.15625 C 33.929688 -17.207031 34.160156 -17.238281 34.390625 -17.25 Z M 34.390625 -17.25 "/></g></g></g><g fill="#14397d" fill-opacity="1"><g transform="translate(131.460004, 103.756565)"><g><path d="M 4.765625 -8.394531 C 4.675781 -9.40625 3.582031 -10.175781 2.085938 -9.574219 C 1.734375 -9.445312 1.410156 -9.308594 1.109375 -9.152344 L 1.070312 -9.90625 C 1.070312 -9.964844 1.003906 -10.003906 0.949219 -9.992188 L 0.0234375 -9.722656 C -0.015625 -9.703125 -0.046875 -9.664062 -0.0507812 -9.621094 L 0.0273438 -8.535156 C -0.460938 -8.203125 -0.789062 -7.925781 -0.945312 -7.761719 C -1.015625 -7.703125 -1.035156 -7.597656 -0.984375 -7.511719 L -0.695312 -7.183594 C -0.640625 -7.085938 -0.492188 -7.050781 -0.398438 -7.128906 C -0.277344 -7.214844 -0.109375 -7.339844 0.0820312 -7.488281 L 0.480469 -1.234375 C 0.3125 -1.222656 0.140625 -1.222656 0 -1.230469 C -0.289062 -1.246094 -0.265625 -0.574219 0 -0.410156 C 0.492188 0.09375 5.875 -0.828125 5.539062 -4.332031 C 5.390625 -5.871094 3.429688 -6.015625 3.429688 -6.015625 C 3.429688 -6.015625 4.855469 -7.253906 4.765625 -8.394531 Z M 4.492188 -4.023438 C 4.5625 -2.75 3.0625 -1.804688 1.597656 -1.421875 L 1.386719 -4.800781 C 2.191406 -5.035156 4.421875 -5.550781 4.492188 -4.023438 Z M 2.929688 -6.789062 C 2.464844 -6.363281 1.78125 -6.027344 1.320312 -5.832031 L 1.171875 -8.203125 C 1.832031 -8.574219 2.585938 -8.902344 3.328125 -8.941406 C 3.71875 -8.964844 4.269531 -8.035156 2.929688 -6.789062 Z M 2.929688 -6.789062 "/></g></g></g><g fill="#14397d" fill-opacity="1"><g transform="translate(138.846732, 101.928597)"><g><path d="M 3.847656 -3.921875 L 3.417969 -4.226562 C 3.367188 -4.253906 3.320312 -4.171875 3.277344 -4.117188 C 2.984375 -3.6875 2.570312 -3.382812 2.214844 -3.269531 C 1.886719 -4.820312 0.691406 -4.652344 0.691406 -4.652344 C 0.691406 -4.652344 0.285156 -4.621094 0.0351562 -4.433594 C -0.0273438 -4.402344 -0.0703125 -4.359375 -0.125 -4.300781 C -0.175781 -4.273438 -0.242188 -4.210938 -0.328125 -4.101562 C -0.816406 -3.359375 -0.882812 -2.539062 -0.871094 -2.042969 C -0.847656 -1.417969 -0.570312 -0.136719 0.675781 -0.238281 C 1.871094 -0.320312 2.273438 -1.464844 2.300781 -2.375 C 3.226562 -2.785156 3.722656 -3.410156 3.882812 -3.746094 C 3.910156 -3.808594 3.917969 -3.882812 3.847656 -3.921875 Z M 0.664062 -3.984375 C 0.9375 -4.089844 1.3125 -3.726562 1.417969 -3.011719 C 1.183594 -2.972656 0.953125 -2.980469 0.785156 -3.015625 C 0.0898438 -3.191406 0.363281 -3.882812 0.664062 -3.984375 Z M 0.894531 -1.027344 C 0.726562 -0.910156 0.339844 -0.769531 0.117188 -1.695312 C 0.0546875 -1.964844 0.0546875 -2.21875 0.0820312 -2.472656 C 0.324219 -2.226562 0.683594 -2.070312 1.121094 -2.09375 C 1.21875 -2.09375 1.316406 -2.109375 1.398438 -2.117188 C 1.296875 -1.53125 1.027344 -1.109375 0.894531 -1.027344 Z M 0.894531 -1.027344 "/></g></g></g><g fill="#14397d" fill-opacity="1"><g transform="translate(143.090379, 100.723465)"><g><path d="M 3.691406 -0.757812 C 3.46875 -2.117188 3.320312 -3.34375 3.089844 -4.195312 C 2.984375 -4.695312 2.910156 -5.0625 2.894531 -5.199219 C 2.890625 -5.257812 2.851562 -5.289062 2.804688 -5.300781 C 2.386719 -5.296875 2.058594 -5.105469 1.9375 -5.023438 C 1.917969 -5 1.898438 -4.96875 1.894531 -4.9375 C 1.90625 -4.855469 1.238281 -1.324219 0.773438 -1.191406 C 0.519531 -1.121094 0.179688 -1.375 0.0664062 -2.03125 C -0.0195312 -2.480469 -0.0898438 -3.328125 -0.09375 -3.515625 C -0.0898438 -3.558594 -0.132812 -3.601562 -0.191406 -3.597656 C -0.605469 -3.625 -0.9375 -3.445312 -1.054688 -3.363281 C -1.09375 -3.351562 -1.097656 -3.320312 -1.101562 -3.277344 C -1.09375 -3.03125 -1.109375 -2.59375 -0.859375 -1.5 C -0.691406 -0.703125 -0.175781 -0.363281 0.429688 -0.238281 C 0.976562 -0.113281 1.503906 -0.355469 1.992188 -1.453125 C 2.15625 -1.839844 2.386719 -2.464844 2.386719 -2.648438 C 2.5 -2.023438 2.683594 -1.054688 2.796875 -0.339844 C 1.605469 0.40625 1.148438 1.582031 1.011719 2.234375 C 0.71875 3.53125 1.027344 4.761719 2.179688 4.824219 C 3.425781 4.882812 3.984375 3.5625 4.027344 2.347656 C 4.035156 1.882812 3.953125 0.996094 3.804688 0.00390625 C 4.304688 -0.246094 4.789062 -0.316406 5.03125 -0.320312 C 5.128906 -0.335938 5.21875 -0.410156 5.246094 -0.507812 L 5.296875 -0.710938 C 5.332031 -0.867188 5.214844 -1.015625 5.054688 -1.007812 C 4.53125 -0.984375 4.085938 -0.882812 3.691406 -0.757812 Z M 3.089844 2.230469 C 3.085938 3.777344 2.457031 4.257812 2.195312 4.210938 C 1.898438 4.132812 1.773438 3.839844 1.78125 3.375 C 1.792969 2.011719 2.304688 1.136719 2.933594 0.574219 C 3.027344 1.265625 3.085938 1.855469 3.089844 2.230469 Z M 3.089844 2.230469 "/></g></g></g><g fill="#14397d" fill-opacity="1"><g transform="translate(148.413765, 98.989419)"><g><path d="M 1.191406 -3.789062 L 1.40625 -4.363281 C 1.40625 -4.363281 0.664062 -4.769531 0.101562 -4.496094 C -0.515625 -4.1875 -0.722656 -3.777344 -0.589844 -3.167969 C -0.378906 -2.160156 1.320312 -1.699219 1.160156 -1.25 C 1.011719 -0.816406 0.246094 -1.230469 0.246094 -1.230469 L -0.0078125 -0.597656 C -0.0078125 -0.597656 0.789062 -0.078125 1.46875 -0.351562 C 2.128906 -0.628906 2.304688 -1.363281 2.007812 -2.035156 C 1.625 -2.9375 0.417969 -3.042969 0.378906 -3.6875 C 0.347656 -4.175781 1.191406 -3.789062 1.191406 -3.789062 Z M 1.191406 -3.789062 "/></g></g></g><g fill="#14397d" fill-opacity="1"><g transform="translate(151.941187, 97.729699)"><g/></g></g><g fill="#14397d" fill-opacity="1"><g transform="translate(155.87455, 96.201105)"><g><path d="M 1.667969 -10.453125 C -0.285156 -9.738281 -1.589844 -8.890625 -2.085938 -8.578125 C -2.109375 -8.566406 -2.121094 -8.5625 -2.128906 -8.542969 L -2.199219 -8.5 C -2.238281 -8.484375 -2.253906 -8.449219 -2.238281 -8.410156 L -1.253906 -4.894531 L -0.960938 -3.882812 L 0.101562 -0.148438 C 0.125 -0.0976562 0.175781 -0.0742188 0.226562 -0.0976562 L 1.082031 -0.515625 C 1.132812 -0.535156 1.144531 -0.585938 1.140625 -0.628906 L 0.0546875 -4.414062 C 0.882812 -4.824219 1.5 -5.097656 1.738281 -5.210938 C 1.800781 -5.238281 1.828125 -5.308594 1.816406 -5.378906 L 1.59375 -6.046875 C 1.5625 -6.125 1.484375 -6.164062 1.421875 -6.140625 C 0.890625 -5.945312 0.324219 -5.691406 -0.21875 -5.417969 L -0.980469 -8.085938 C 0.746094 -9.097656 1.554688 -9.332031 1.988281 -9.515625 C 2.046875 -9.554688 2.09375 -9.617188 2.0625 -9.695312 L 1.839844 -10.363281 C 1.820312 -10.445312 1.75 -10.472656 1.667969 -10.453125 Z M 1.667969 -10.453125 "/></g></g></g><g fill="#14397d" fill-opacity="1"><g transform="translate(159.72722, 94.598899)"><g><path d="M 5.28125 -4.75 L 4.648438 -5.003906 C 4.574219 -5.03125 4.5 -4.996094 4.484375 -4.929688 C 4.347656 -4.441406 3.808594 -2.71875 3.242188 -2.472656 C 2.722656 -2.246094 2.183594 -3.9375 2.066406 -4.449219 C 1.980469 -4.800781 1.867188 -5.175781 1.84375 -5.359375 C 1.835938 -5.402344 1.789062 -5.441406 1.734375 -5.429688 C 1.367188 -5.367188 1.042969 -5.1875 0.949219 -5.097656 C 0.914062 -5.066406 0.902344 -5.03125 0.914062 -5.003906 C 0.941406 -4.882812 1.011719 -4.566406 1.117188 -4.175781 C 0.761719 -4.28125 0.320312 -4.320312 -0.136719 -4.125 C -0.929688 -3.773438 -1.648438 -2.605469 -1.121094 -1.40625 C -0.667969 -0.359375 0.230469 -0.121094 0.949219 -0.441406 C 1.550781 -0.71875 1.835938 -1.472656 1.957031 -2.195312 C 2.335938 -1.671875 2.855469 -1.335938 3.484375 -1.613281 C 4.347656 -1.984375 5.039062 -3.335938 5.351562 -4.601562 C 5.363281 -4.667969 5.335938 -4.730469 5.28125 -4.75 Z M 0.597656 -1.261719 C 0.296875 -1.125 -0.0273438 -1.308594 -0.195312 -1.699219 C -0.523438 -2.441406 -0.203125 -3.226562 0.300781 -3.445312 C 0.613281 -3.589844 0.925781 -3.539062 1.199219 -3.40625 C 1.195312 -2.328125 0.847656 -1.378906 0.597656 -1.261719 Z M 0.597656 -1.261719 "/></g></g></g><g fill="#14397d" fill-opacity="1"><g transform="translate(165.520781, 91.88873)"><g><path d="M 0.710938 -3.90625 L 0.855469 -4.503906 C 0.855469 -4.503906 0.0664062 -4.816406 -0.457031 -4.476562 C -1.03125 -4.089844 -1.183594 -3.660156 -0.980469 -3.070312 C -0.644531 -2.097656 1.101562 -1.851562 0.996094 -1.382812 C 0.902344 -0.933594 0.09375 -1.25 0.09375 -1.25 L -0.0820312 -0.589844 C -0.0820312 -0.589844 0.773438 -0.175781 1.414062 -0.527344 C 2.035156 -0.890625 2.117188 -1.640625 1.738281 -2.265625 C 1.25 -3.113281 0.0351562 -3.074219 -0.0820312 -3.707031 C -0.171875 -4.1875 0.710938 -3.90625 0.710938 -3.90625 Z M 0.710938 -3.90625 "/></g></g></g><g fill="#14397d" fill-opacity="1"><g transform="translate(168.873776, 90.200747)"><g><path d="M 3.550781 -4.050781 L 3.019531 -4.109375 C 2.957031 -4.105469 2.90625 -4.0625 2.898438 -4.011719 C 2.824219 -3.75 2.617188 -3 2.371094 -2.851562 C 2.074219 -2.671875 1.320312 -4.097656 0.453125 -3.613281 C 0.0390625 -3.371094 -0.128906 -2.640625 -0.199219 -1.929688 C -0.449219 -2.589844 -0.738281 -3.390625 -1.011719 -4.148438 C 0.0234375 -5.101562 0.25 -6.335938 0.28125 -6.996094 C 0.324219 -8.332031 -0.199219 -9.476562 -1.328125 -9.332031 C -2.585938 -9.167969 -2.882812 -7.753906 -2.703125 -6.554688 C -2.644531 -6.128906 -2.40625 -5.335938 -2.105469 -4.433594 C -2.628906 -4.074219 -3.128906 -3.925781 -3.328125 -3.863281 C -3.382812 -3.851562 -3.421875 -3.800781 -3.425781 -3.75 L -3.429688 -3.152344 C -3.421875 -3.078125 -3.359375 -3.019531 -3.273438 -3.035156 C -2.695312 -3.160156 -2.214844 -3.339844 -1.8125 -3.574219 C -1.324219 -2.210938 -0.746094 -0.769531 -0.371094 0.0117188 C -0.191406 0.167969 0.453125 -0.261719 0.453125 -0.261719 C 0.453125 -0.261719 0.449219 -2.496094 0.792969 -2.636719 C 1.324219 -2.878906 1.710938 -1.582031 2.695312 -2.023438 C 3.386719 -2.335938 3.613281 -3.539062 3.667969 -3.925781 C 3.675781 -3.996094 3.625 -4.0625 3.550781 -4.050781 Z M -1.769531 -6.621094 C -2.035156 -8.152344 -1.515625 -8.730469 -1.246094 -8.71875 C -0.929688 -8.71875 -0.761719 -8.433594 -0.691406 -7.988281 C -0.476562 -6.664062 -0.828125 -5.75 -1.34375 -5.113281 C -1.535156 -5.730469 -1.703125 -6.265625 -1.769531 -6.621094 Z M -1.769531 -6.621094 "/></g></g></g><g fill="#14397d" fill-opacity="1"><g transform="translate(173.002505, 87.946428)"><g><path d="M -1.519531 -3.191406 C -1.75 -3.011719 -1.546875 -2.621094 -1.546875 -2.621094 C -1.546875 -2.621094 -0.546875 -0.433594 -0.363281 -0.078125 C -0.246094 0.15625 0.371094 -0.179688 0.449219 -0.269531 C 0.523438 -0.363281 -0.648438 -3.246094 -0.757812 -3.4375 C -0.871094 -3.609375 -1.277344 -3.375 -1.519531 -3.191406 Z M -1.242188 -4.0625 C -1.128906 -4.253906 -1.257812 -4.925781 -1.777344 -4.835938 C -2.371094 -4.734375 -2.289062 -4.289062 -2.195312 -4.089844 C -1.976562 -3.628906 -1.40625 -3.796875 -1.242188 -4.0625 Z M -1.242188 -4.0625 "/></g></g></g><g fill="#14397d" fill-opacity="1"><g transform="translate(174.780803, 86.943824)"><g><path d="M 2.703125 -4.785156 L 2.207031 -4.96875 C 2.148438 -4.980469 2.125 -4.886719 2.097656 -4.824219 C 1.925781 -4.335938 1.605469 -3.933594 1.292969 -3.730469 C 0.574219 -5.144531 -0.539062 -4.671875 -0.539062 -4.671875 C -0.539062 -4.671875 -0.921875 -4.535156 -1.113281 -4.292969 C -1.167969 -4.246094 -1.199219 -4.195312 -1.238281 -4.121094 C -1.277344 -4.082031 -1.328125 -4.003906 -1.378906 -3.878906 C -1.660156 -3.035156 -1.511719 -2.222656 -1.371094 -1.746094 C -1.1875 -1.148438 -0.585938 0.015625 0.59375 -0.402344 C 1.722656 -0.792969 1.816406 -2.003906 1.605469 -2.890625 C 2.398438 -3.523438 2.710938 -4.257812 2.78125 -4.625 C 2.789062 -4.691406 2.777344 -4.765625 2.703125 -4.785156 Z M -0.390625 -4.019531 C -0.15625 -4.195312 0.300781 -3.9375 0.589844 -3.273438 C 0.375 -3.179688 0.148438 -3.125 -0.0234375 -3.117188 C -0.738281 -3.105469 -0.652344 -3.847656 -0.390625 -4.019531 Z M 0.597656 -1.226562 C 0.46875 -1.066406 0.128906 -0.832031 -0.324219 -1.667969 C -0.457031 -1.910156 -0.523438 -2.160156 -0.5625 -2.410156 C -0.265625 -2.234375 0.121094 -2.175781 0.539062 -2.3125 C 0.636719 -2.339844 0.726562 -2.378906 0.804688 -2.410156 C 0.855469 -1.8125 0.707031 -1.339844 0.597656 -1.226562 Z M 0.597656 -1.226562 "/></g></g></g><g fill="#14397d" fill-opacity="1"><g transform="translate(178.55517, 84.681591)"><g><path d="M 0.363281 -4.523438 C -0.273438 -4.242188 -0.613281 -3.191406 -0.589844 -2.339844 C -0.796875 -2.84375 -1.019531 -3.390625 -1.199219 -3.847656 C -1.324219 -4.171875 -1.40625 -4.171875 -1.957031 -3.832031 C -2.097656 -3.742188 -2.214844 -3.648438 -1.953125 -3.035156 C -1.625 -2.246094 -1.082031 -0.890625 -0.539062 0.101562 C -0.34375 0.253906 0.273438 -0.210938 0.273438 -0.210938 C 0.304688 -0.210938 0.328125 -0.226562 0.308594 -0.28125 C 0.0742188 -1.257812 0.273438 -3.648438 0.65625 -3.761719 C 1.03125 -3.871094 1.785156 -1.753906 1.898438 -1.582031 C 2 -1.417969 2.707031 -1.695312 2.792969 -1.8125 C 2.851562 -1.902344 2.53125 -2.707031 2.011719 -3.667969 C 1.496094 -4.648438 0.773438 -4.703125 0.363281 -4.523438 Z M 0.363281 -4.523438 "/></g></g></g></svg>